<svg version="1.1" preserveAspectRatio="none" xmlns="http://www.w3.org/2000/svg" width="500" height="500" viewBox="0 0 500 500"><rect width="100%" height="100%" fill="#C50E52" fill-opacity="1"/><svg viewBox="297.4091 307.1092 377.9333 73" width="333" height="64.32087355096786" x="83.5px" y="217.8396px" xmlns="http://www.w3.org/2000/svg" xmlns:xlink="http://www.w3.org/1999/xlink" preserveAspectRatio="none"><defs></defs><style>.companyName {fill:#FFF9F2;fill-opacity:1;}.icon3-str {stroke:#73022C;stroke-opacity:1;}.shapeStroke-str {stroke:#73022C;stroke-opacity:1;}.text {fill:#FFF9F2;fill-opacity:1;}</style><g opacity="1" transform="rotate(0 297.4091 346.1092)">
<svg width="377.9333" height="14" x="297.4091" y="346.1092" version="1.1" preserveAspectRatio="none" viewBox="4.2 -28.32 773.16 28.64">
  <g transform="matrix(1 0 0 1 0 0)" class="text"><path id="id-6izo4zJp21" d="M23.04-14.52Q25.48-13.84 26.88-12.06Q28.28-10.28 28.28-7.56L28.28-7.56Q28.28-3.92 25.54-1.96Q22.80 0 17.56 0L17.56 0L4.20 0L4.20-28L16.76-28Q21.56-28 24.18-26.08Q26.80-24.16 26.80-20.76L26.80-20.76Q26.80-18.56 25.78-16.96Q24.76-15.36 23.04-14.52L23.04-14.52ZM16.40-24.76L8.20-24.76L8.20-15.80L16.40-15.80Q19.48-15.80 21.14-16.94Q22.80-18.08 22.80-20.28L22.80-20.28Q22.80-22.48 21.14-23.62Q19.48-24.76 16.40-24.76L16.40-24.76ZM17.40-3.24Q20.80-3.24 22.52-4.36Q24.24-5.48 24.24-7.88L24.24-7.88Q24.24-12.56 17.40-12.56L17.40-12.56L8.20-12.56L8.20-3.24L17.40-3.24Z M67.40 0L64.32-7L49.44-7L46.36 0L42.24 0L54.92-28L58.88-28L71.60 0L67.40 0ZM50.84-10.20L62.92-10.20L56.88-23.92L50.84-10.20Z M107.84-28L111.84-28L111.84 0L108.56 0L91.76-20.88L91.76 0L87.76 0L87.76-28L91.04-28L107.84-7.12L107.84-28Z M153.16 0L150.08-7L135.20-7L132.12 0L128.00 0L140.68-28L144.64-28L157.36 0L153.16 0ZM136.60-10.20L148.68-10.20L142.64-23.92L136.60-10.20Z M181.68 0.32Q178.52 0.32 175.58-0.66Q172.64-1.64 170.96-3.20L170.96-3.20L172.44-6.32Q174.04-4.88 176.54-3.98Q179.04-3.08 181.68-3.08L181.68-3.08Q185.16-3.08 186.88-4.26Q188.60-5.44 188.60-7.40L188.60-7.40Q188.60-8.84 187.66-9.74Q186.72-10.64 185.34-11.12Q183.96-11.60 181.44-12.20L181.44-12.20Q178.28-12.96 176.34-13.72Q174.40-14.48 173.02-16.06Q171.64-17.64 171.64-20.32L171.64-20.32Q171.64-22.56 172.82-24.36Q174.00-26.16 176.40-27.24Q178.80-28.32 182.36-28.32L182.36-28.32Q184.84-28.32 187.24-27.68Q189.64-27.04 191.36-25.84L191.36-25.84L190.04-22.64Q188.28-23.76 186.28-24.34Q184.28-24.92 182.36-24.92L182.36-24.92Q178.96-24.92 177.26-23.68Q175.56-22.44 175.56-20.48L175.56-20.48Q175.56-19.04 176.52-18.14Q177.48-17.24 178.90-16.74Q180.32-16.24 182.76-15.68L182.76-15.68Q185.92-14.92 187.84-14.16Q189.76-13.40 191.14-11.84Q192.52-10.28 192.52-7.64L192.52-7.64Q192.52-5.44 191.32-3.62Q190.12-1.80 187.68-0.74Q185.24 0.32 181.68 0.32L181.68 0.32Z M215.52 0L215.52-24.52L205.92-24.52L205.92-28L229.08-28L229.08-24.52L219.48-24.52L219.48 0L215.52 0Z M265.52-28L269.52-28L269.52 0L265.52 0L265.52-12.48L249.44-12.48L249.44 0L245.44 0L245.44-28L249.44-28L249.44-15.96L265.52-15.96L265.52-28Z M310.84 0L307.76-7L292.88-7L289.80 0L285.68 0L298.36-28L302.32-28L315.04 0L310.84 0ZM294.28-10.20L306.36-10.20L300.32-23.92L294.28-10.20Z M331.20 0L331.20-28L335.20-28L335.20-3.48L350.36-3.48L350.36 0L331.20 0Z M366.96 0L366.96-28L370.96-28L370.96 0L366.96 0Z M434.44-28L438.44-28L426.16 0L422.20 0L409.88-28L414.20-28L424.28-5L434.44-28Z M454.00 0L454.00-28L458.00-28L458.00 0L454.00 0Z M478.40 0L478.40-28L490.20-28Q494.64-28 498.08-26.24Q501.52-24.48 503.42-21.30Q505.32-18.12 505.32-14L505.32-14Q505.32-9.88 503.42-6.70Q501.52-3.52 498.08-1.76Q494.64 0 490.20 0L490.20 0L478.40 0ZM482.40-3.48L489.96-3.48Q493.36-3.48 495.94-4.80Q498.52-6.12 499.92-8.50Q501.32-10.88 501.32-14L501.32-14Q501.32-17.12 499.92-19.50Q498.52-21.88 495.94-23.20Q493.36-24.52 489.96-24.52L489.96-24.52L482.40-24.52L482.40-3.48Z M544.08-28L532.96-9.68L532.96 0L529 0L529-9.76L517.88-28L522.16-28L531.12-13.24L540.12-28L544.08-28Z M579.36 0L576.28-7L561.40-7L558.32 0L554.20 0L566.88-28L570.84-28L583.56 0L579.36 0ZM562.80-10.20L574.88-10.20L568.84-23.92L562.80-10.20Z M610.64-28Q616.08-28 619.20-25.40Q622.32-22.80 622.32-18.24L622.32-18.24Q622.32-13.68 619.20-11.08Q616.08-8.48 610.64-8.48L610.64-8.48L603.72-8.48L603.72 0L599.72 0L599.72-28L610.64-28ZM610.52-11.96Q614.32-11.96 616.32-13.58Q618.32-15.20 618.32-18.24L618.32-18.24Q618.32-21.28 616.32-22.90Q614.32-24.52 610.52-24.52L610.52-24.52L603.72-24.52L603.72-11.96L610.52-11.96Z M644.20-3.48L660.52-3.48L660.52 0L640.20 0L640.20-28L659.96-28L659.96-24.52L644.20-24.52L644.20-15.92L658.24-15.92L658.24-12.52L644.20-12.52L644.20-3.48Z M683-3.48L699.32-3.48L699.32 0L679 0L679-28L698.76-28L698.76-24.52L683-24.52L683-15.92L697.04-15.92L697.04-12.52L683-12.52L683-3.48Z M723.36 0L723.36-24.52L713.76-24.52L713.76-28L736.92-28L736.92-24.52L727.32-24.52L727.32 0L723.36 0Z M773.36-28L777.36-28L777.36 0L773.36 0L773.36-12.48L757.28-12.48L757.28 0L753.28 0L753.28-28L757.28-28L757.28-15.96L773.36-15.96L773.36-28Z"/></g>
</svg>
</g><g opacity="1" transform="rotate(0 310.1103 307.1092)">
<svg width="352.5308" height="24" x="310.1103" y="307.1092" version="1.1" preserveAspectRatio="none" viewBox="0 -28.4 423.04 28.8">
  <g transform="matrix(1 0 0 1 0 0)" class="companyName"><path id="id-D6z1nYkh17" d="M35.84-14.56Q38.16-13.80 39.52-12.02Q40.88-10.24 40.88-7.60L40.88-7.60Q40.88-3.96 38.08-1.98Q35.28 0 29.92 0L29.92 0L16 0L16-28L29.12-28Q34.08-28 36.76-26.06Q39.44-24.12 39.44-20.72L39.44-20.72Q39.44-18.64 38.48-17.04Q37.52-15.44 35.84-14.56L35.84-14.56ZM28.56-23.92L21.20-23.92L21.20-16.20L28.56-16.20Q31.28-16.20 32.74-17.18Q34.20-18.16 34.20-20.04L34.20-20.04Q34.20-21.96 32.74-22.94Q31.28-23.92 28.56-23.92L28.56-23.92ZM29.60-4.08Q35.64-4.08 35.64-8.12L35.64-8.12Q35.64-12.16 29.60-12.16L29.60-12.16L21.20-12.16L21.20-4.08L29.60-4.08Z M67.84-28L73.04-28L60.84 0L55.72 0L43.48-28L49.12-28L58.44-6.40L67.84-28Z M98.72 0.40Q95.48 0.40 92.46-0.52Q89.44-1.44 87.68-2.96L87.68-2.96L89.48-7Q91.20-5.64 93.70-4.78Q96.20-3.92 98.72-3.92L98.72-3.92Q101.84-3.92 103.38-4.92Q104.92-5.92 104.92-7.56L104.92-7.56Q104.92-8.76 104.06-9.54Q103.20-10.32 101.88-10.76Q100.56-11.20 98.28-11.76L98.28-11.76Q95.08-12.52 93.10-13.28Q91.12-14.04 89.70-15.66Q88.28-17.28 88.28-20.04L88.28-20.04Q88.28-22.36 89.54-24.26Q90.80-26.16 93.34-27.28Q95.88-28.40 99.56-28.40L99.56-28.40Q102.12-28.40 104.60-27.76Q107.08-27.12 108.88-25.92L108.88-25.92L107.24-21.88Q105.40-22.96 103.40-23.52Q101.40-24.08 99.52-24.08L99.52-24.08Q96.44-24.08 94.94-23.04Q93.44-22 93.44-20.28L93.44-20.28Q93.44-19.08 94.30-18.32Q95.16-17.56 96.48-17.12Q97.80-16.68 100.08-16.12L100.08-16.12Q103.20-15.40 105.20-14.62Q107.20-13.84 108.62-12.24Q110.04-10.64 110.04-7.92L110.04-7.92Q110.04-5.60 108.78-3.72Q107.52-1.84 104.96-0.72Q102.40 0.40 98.72 0.40L98.72 0.40Z M136.08-28L141.28-28L141.28 0L136.08 0L136.08-12L121.60-12L121.60 0L116.40 0L116.40-28L121.60-28L121.60-16.44L136.08-16.44L136.08-28Z M163.08 0.40Q158.80 0.40 155.36-1.46Q151.92-3.32 149.96-6.62Q148-9.92 148-14L148-14Q148-18.08 149.96-21.38Q151.92-24.68 155.36-26.54Q158.80-28.40 163.08-28.40L163.08-28.40Q167.36-28.40 170.80-26.54Q174.24-24.68 176.20-21.40Q178.16-18.12 178.16-14L178.16-14Q178.16-9.88 176.20-6.60Q174.24-3.32 170.80-1.46Q167.36 0.40 163.08 0.40L163.08 0.40ZM163.08-4.16Q165.88-4.16 168.12-5.42Q170.36-6.68 171.64-8.94Q172.92-11.20 172.92-14L172.92-14Q172.92-16.80 171.64-19.06Q170.36-21.32 168.12-22.58Q165.88-23.84 163.08-23.84L163.08-23.84Q160.28-23.84 158.04-22.58Q155.80-21.32 154.52-19.06Q153.24-16.80 153.24-14L153.24-14Q153.24-11.20 154.52-8.94Q155.80-6.68 158.04-5.42Q160.28-4.16 163.08-4.16L163.08-4.16Z M196.40-28Q200.04-28 202.74-26.80Q205.44-25.60 206.88-23.36Q208.32-21.12 208.32-18.04L208.32-18.04Q208.32-15 206.88-12.74Q205.44-10.48 202.74-9.28Q200.04-8.08 196.40-8.08L196.40-8.08L190.08-8.08L190.08 0L184.88 0L184.88-28L196.40-28ZM196.16-12.48Q199.56-12.48 201.32-13.92Q203.08-15.36 203.08-18.04L203.08-18.04Q203.08-20.72 201.32-22.16Q199.56-23.60 196.16-23.60L196.16-23.60L190.08-23.60L190.08-12.48L196.16-12.48Z M226.24-28Q229.88-28 232.58-26.80Q235.28-25.60 236.72-23.36Q238.16-21.12 238.16-18.04L238.16-18.04Q238.16-15 236.72-12.74Q235.28-10.48 232.58-9.28Q229.88-8.08 226.24-8.08L226.24-8.08L219.92-8.08L219.92 0L214.72 0L214.72-28L226.24-28ZM226.00-12.48Q229.40-12.48 231.16-13.92Q232.92-15.36 232.92-18.04L232.92-18.04Q232.92-20.72 231.16-22.16Q229.40-23.60 226.00-23.60L226.00-23.60L219.92-23.60L219.92-12.48L226.00-12.48Z M244.56 0L244.56-28L249.76-28L249.76 0L244.56 0Z M278.24-28L283.40-28L283.40 0L279.12 0L263.68-18.96L263.68 0L258.52 0L258.52-28L262.80-28L278.24-9.04L278.24-28Z M311.24-5.60L311.24-14.32L316.16-14.32L316.16-3.16Q314.00-1.44 311.12-0.52Q308.24 0.40 305.20 0.40L305.20 0.40Q300.92 0.40 297.48-1.46Q294.04-3.32 292.08-6.60Q290.12-9.88 290.12-14L290.12-14Q290.12-18.12 292.08-21.40Q294.04-24.68 297.50-26.54Q300.96-28.40 305.28-28.40L305.28-28.40Q308.80-28.40 311.68-27.24Q314.56-26.08 316.52-23.84L316.52-23.84L313.24-20.64Q310.04-23.84 305.52-23.84L305.52-23.84Q302.56-23.84 300.26-22.60Q297.96-21.36 296.66-19.12Q295.36-16.88 295.36-14L295.36-14Q295.36-11.20 296.66-8.96Q297.96-6.72 300.26-5.44Q302.56-4.16 305.48-4.16L305.48-4.16Q308.76-4.16 311.24-5.60L311.24-5.60Z M345.12 0.40Q341.88 0.40 338.86-0.52Q335.84-1.44 334.08-2.96L334.08-2.96L335.88-7Q337.60-5.64 340.10-4.78Q342.60-3.92 345.12-3.92L345.12-3.92Q348.24-3.92 349.78-4.92Q351.32-5.92 351.32-7.56L351.32-7.56Q351.32-8.76 350.46-9.54Q349.60-10.32 348.28-10.76Q346.96-11.20 344.68-11.76L344.68-11.76Q341.48-12.52 339.50-13.28Q337.52-14.04 336.10-15.66Q334.68-17.28 334.68-20.04L334.68-20.04Q334.68-22.36 335.94-24.26Q337.20-26.16 339.74-27.28Q342.28-28.40 345.96-28.40L345.96-28.40Q348.52-28.40 351.00-27.76Q353.48-27.12 355.28-25.92L355.28-25.92L353.64-21.88Q351.80-22.96 349.80-23.52Q347.80-24.08 345.92-24.08L345.92-24.08Q342.84-24.08 341.34-23.04Q339.84-22 339.84-20.28L339.84-20.28Q339.84-19.08 340.70-18.32Q341.56-17.56 342.88-17.12Q344.20-16.68 346.48-16.12L346.48-16.12Q349.60-15.40 351.60-14.62Q353.60-13.84 355.02-12.24Q356.44-10.64 356.44-7.92L356.44-7.92Q356.44-5.60 355.18-3.72Q353.92-1.84 351.36-0.72Q348.80 0.40 345.12 0.40L345.12 0.40Z M362.80 0L362.80-28L368.00-28L368.00 0L362.80 0Z M382.44 0L382.44-23.60L373.16-23.60L373.16-28L396.92-28L396.92-23.60L387.64-23.60L387.64 0L382.44 0Z M407.24-4.36L423.04-4.36L423.04 0L402.04 0L402.04-28L422.48-28L422.48-23.64L407.24-23.64L407.24-16.36L420.76-16.36L420.76-12.08L407.24-12.08L407.24-4.36Z"/></g>
</svg>
</g><g opacity="1" transform="rotate(0 297.4091 374.1092)">
<svg width="377.9333" height="6" x="297.4091" y="374.1092" version="1.1" preserveAspectRatio="none" viewBox="0 0 377.9333 6">
  <defs><rect x="0" y="0" width="377.9333" height="6" rx="0px" ry="0px" id="id-MGa_3CcrI1675613303777"></rect></defs><use class="companyName shapeStroke-str" style="stroke-width:0;" xlink:href="#id-MGa_3CcrI1675613303777"></use>
</svg>
</g></svg></svg>