<svg version="1.1" preserveAspectRatio="none" xmlns="http://www.w3.org/2000/svg" width="500" height="500" viewBox="0 0 500 500"><rect width="100%" height="100%" fill="#BE8A62" fill-opacity="1"/><svg viewBox="48.0338 62.6943 342.5944 211.431" width="333" height="205.50984779669488" x="83.5px" y="147.2451px" xmlns="http://www.w3.org/2000/svg" xmlns:xlink="http://www.w3.org/1999/xlink" preserveAspectRatio="none"><defs></defs><style>.companyName {fill:#F3F0ED;fill-opacity:1;}.icon1 {fill:#F3F0ED;fill-opacity:1;}.icon2 {fill:#F3B340;fill-opacity:1;}.icon3 {fill:#FDCEAC;fill-opacity:1;}.icon3-str {stroke:#FDCEAC;stroke-opacity:1;}.text {fill:#F3F0ED;fill-opacity:1;}</style><g opacity="1" transform="rotate(0 150.8121 62.6943)">
<svg width="137.0378" height="89.931" x="150.8121" y="62.6943" version="1.1" preserveAspectRatio="none" viewBox="20 47.5 160.00001525878906 105">
  <g transform="matrix(1 0 0 1 0 0)" ><g><path d="M82.086 74.541l-4.439-3.709 17.625-21.117A6.143 6.143 0 01100 47.5c1.83 0 3.554.807 4.728 2.215l17.625 21.117-4.439 3.709-17.625-21.117a.375.375 0 00-.578 0L82.086 74.541z" data-color="1" class="icon1"></path><path d="M173.789 149.607H26.211a3.319 3.319 0 01-3.319-3.319V76.53a3.319 3.319 0 013.319-3.319H173.79a3.319 3.319 0 013.319 3.319v69.758a3.32 3.32 0 01-3.32 3.319z" data-color="1" class="icon1"></path><path opacity=".2" d="M173.789 149.607H26.211a3.319 3.319 0 01-3.319-3.319V76.53a3.319 3.319 0 013.319-3.319H173.79a3.319 3.319 0 013.319 3.319v69.758a3.32 3.32 0 01-3.32 3.319z"></path><path d="M173.79 152.5H26.21a6.219 6.219 0 01-6.21-6.213V76.531a6.219 6.219 0 016.21-6.213h147.58a6.219 6.219 0 016.21 6.213v69.756a6.218 6.218 0 01-6.21 6.213zM26.21 76.104a.427.427 0 00-.426.427v69.756c0 .235.191.427.426.427h147.58a.427.427 0 00.426-.427V76.531a.427.427 0 00-.426-.427H26.21z" data-color="1" class="icon1"></path><path d="M103.136 55.636A3.144 3.144 0 01100 58.788a3.144 3.144 0 01-3.136-3.152A3.144 3.144 0 01100 52.484a3.144 3.144 0 013.136 3.152z" data-color="2" class="icon2"></path><path d="M71.467 113.549c0 9.146-1.013 15.643-3.038 19.488-2.026 3.847-5.421 5.77-10.185 5.77-5.009 0-8.537-2.068-10.585-6.206-2.025-4.047-3.038-11.236-3.038-21.567 0-9.213 1.002-15.731 3.005-19.556 2.025-3.846 5.454-5.77 10.284-5.77 4.318 0 7.524 1.487 9.617 4.462 1.38 1.99 2.381 4.818 3.005 8.486.624 3.399.935 8.364.935 14.893zm-7.279.738c0-8.968-.4-14.915-1.202-17.845-.801-2.952-2.438-4.428-4.908-4.428s-4.118 1.353-4.941 4.059c-.802 2.729-1.202 8.207-1.202 16.436 0 7.581.423 12.836 1.269 15.765.868 2.773 2.493 4.16 4.875 4.16 2.338 0 3.94-1.297 4.809-3.892.866-2.571 1.3-7.323 1.3-14.255z" data-color="2" class="icon2"></path><path d="M78.346 86.379h9.148c4.408 0 7.613 1.119 9.617 3.354 2.003 2.259 3.005 5.837 3.005 10.733 0 6.888-2.015 11.338-6.044 13.351-2.025.917-4.953 1.375-8.781 1.375v22.977h-6.945v-51.79zm6.946 22.843c2.871 0 4.853-.581 5.943-1.744 1.112-1.185 1.669-3.287 1.669-6.306 0-3.086-.534-5.345-1.603-6.776-1.068-1.431-2.749-2.146-5.042-2.146h-.968v16.972z" data-color="2" class="icon2"></path><path d="M105.46 86.379h18.465v5.903h-11.52v16.402h10.217v5.904h-10.217v17.677h11.52v5.903H105.46V86.379z" data-color="2" class="icon2"></path><path d="M130.303 86.379h6.478l6.912 20.662c2.003 5.837 3.772 12.064 5.309 18.684-.557-4.003-.968-7.625-1.235-10.868-.267-3.241-.4-6.294-.4-9.156V86.379h6.979v51.79h-6.511l-7.78-23.312a150.972 150.972 0 01-2.021-6.675 120.884 120.884 0 01-1.753-7.178c-.045-.313-.116-.693-.217-1.141s-.217-.961-.351-1.543c.066.582.122 1.079.167 1.493.044.414.077.766.1 1.056l.368 5.267.367 6.406c.021.358.038.795.05 1.309.011.515.017 1.096.017 1.744l.367 22.574h-6.845v-51.79z" data-color="2" class="icon2"></path></g></g>
</svg>
</g><g opacity="1" transform="rotate(0 108.2945 256.6253)">
<svg width="222.0731" height="17.5" x="108.2945" y="256.6253" version="1.1" preserveAspectRatio="none" viewBox="4.56 -29.68 477.56 37.64">
  <g transform="matrix(1 0 0 1 0 0)" class="text"><path id="id-6izo4zJp21" d="M22.20-14.44Q24.96-13.84 26.46-12.06Q27.96-10.28 27.96-7.48L27.96-7.48Q27.96-3.88 25.30-1.94Q22.64 0 17.44 0L17.44 0L4.56 0L4.56-28L16.64-28Q21.32-28 23.90-26.12Q26.48-24.24 26.48-20.80L26.48-20.80Q26.48-18.48 25.34-16.86Q24.20-15.24 22.20-14.44L22.20-14.44ZM16.44-25.56L7.52-25.56L7.52-15.40L16.44-15.40Q19.84-15.40 21.68-16.70Q23.52-18 23.52-20.48L23.52-20.48Q23.52-22.96 21.68-24.26Q19.84-25.56 16.44-25.56L16.44-25.56ZM17.40-2.44Q21.16-2.44 23.08-3.72Q25-5 25-7.72L25-7.72Q25-12.96 17.40-12.96L17.40-12.96L7.52-12.96L7.52-2.44L17.40-2.44Z M43.48-21.20Q47.60-21.20 49.80-19.14Q52-17.08 52-13.04L52-13.04L52 0L49.28 0L49.28-3.28Q48.32-1.64 46.46-0.72Q44.60 0.20 42.04 0.20L42.04 0.20Q38.52 0.20 36.44-1.48Q34.36-3.16 34.36-5.92L34.36-5.92Q34.36-8.60 36.30-10.24Q38.24-11.88 42.48-11.88L42.48-11.88L49.16-11.88L49.16-13.16Q49.16-15.88 47.64-17.30Q46.12-18.72 43.20-18.72L43.20-18.72Q41.20-18.72 39.36-18.06Q37.52-17.40 36.20-16.24L36.20-16.24L34.92-18.36Q36.52-19.72 38.76-20.46Q41-21.20 43.48-21.20L43.48-21.20ZM42.48-2.04Q44.88-2.04 46.60-3.14Q48.32-4.24 49.16-6.32L49.16-6.32L49.16-9.76L42.56-9.76Q37.16-9.76 37.16-6L37.16-6Q37.16-4.16 38.56-3.10Q39.96-2.04 42.48-2.04L42.48-2.04Z M72.44-21.20Q76.40-21.20 78.74-18.90Q81.08-16.60 81.08-12.20L81.08-12.20L81.08 0L78.24 0L78.24-11.92Q78.24-15.20 76.60-16.92Q74.96-18.64 71.92-18.64L71.92-18.64Q68.52-18.64 66.54-16.62Q64.56-14.60 64.56-11.04L64.56-11.04L64.56 0L61.72 0L61.72-21.04L64.44-21.04L64.44-17.16Q65.60-19.08 67.66-20.14Q69.72-21.20 72.44-21.20L72.44-21.20Z M98.16-21.20Q102.28-21.20 104.48-19.14Q106.68-17.08 106.68-13.04L106.68-13.04L106.68 0L103.96 0L103.96-3.28Q103-1.64 101.14-0.72Q99.28 0.20 96.72 0.20L96.72 0.20Q93.20 0.20 91.12-1.48Q89.04-3.16 89.04-5.92L89.04-5.92Q89.04-8.60 90.98-10.24Q92.92-11.88 97.16-11.88L97.16-11.88L103.84-11.88L103.84-13.16Q103.84-15.88 102.32-17.30Q100.80-18.72 97.88-18.72L97.88-18.72Q95.88-18.72 94.04-18.06Q92.20-17.40 90.88-16.24L90.88-16.24L89.60-18.36Q91.20-19.72 93.44-20.46Q95.68-21.20 98.16-21.20L98.16-21.20ZM97.16-2.04Q99.56-2.04 101.28-3.14Q103-4.24 103.84-6.32L103.84-6.32L103.84-9.76L97.24-9.76Q91.84-9.76 91.84-6L91.84-6Q91.84-4.16 93.24-3.10Q94.64-2.04 97.16-2.04L97.16-2.04Z M122.04 0.20Q119.48 0.20 117.14-0.54Q114.80-1.28 113.48-2.40L113.48-2.40L114.76-4.64Q116.08-3.60 118.08-2.94Q120.08-2.28 122.24-2.28L122.24-2.28Q125.12-2.28 126.50-3.18Q127.88-4.08 127.88-5.72L127.88-5.72Q127.88-6.88 127.12-7.54Q126.36-8.20 125.20-8.54Q124.04-8.88 122.12-9.20L122.12-9.20Q119.56-9.68 118-10.18Q116.44-10.68 115.34-11.88Q114.24-13.08 114.24-15.20L114.24-15.20Q114.24-17.84 116.44-19.52Q118.64-21.20 122.56-21.20L122.56-21.20Q124.60-21.20 126.64-20.66Q128.68-20.12 130-19.24L130-19.24L128.76-16.96Q126.16-18.76 122.56-18.76L122.56-18.76Q119.84-18.76 118.46-17.80Q117.08-16.84 117.08-15.28L117.08-15.28Q117.08-14.08 117.86-13.36Q118.64-12.64 119.80-12.30Q120.96-11.96 123-11.60L123-11.60Q125.52-11.12 127.04-10.64Q128.56-10.16 129.64-9Q130.72-7.84 130.72-5.80L130.72-5.80Q130.72-3.04 128.42-1.42Q126.12 0.20 122.04 0.20L122.04 0.20Z M148.04-3.32L149.04-1.28Q148.24-0.56 147.06-0.18Q145.88 0.20 144.60 0.20L144.60 0.20Q141.64 0.20 140.04-1.40Q138.44-3 138.44-5.92L138.44-5.92L138.44-18.64L134.68-18.64L134.68-21.04L138.44-21.04L138.44-25.64L141.28-25.64L141.28-21.04L147.68-21.04L147.68-18.64L141.28-18.64L141.28-6.08Q141.28-4.20 142.22-3.22Q143.16-2.24 144.92-2.24L144.92-2.24Q145.80-2.24 146.62-2.52Q147.44-2.80 148.04-3.32L148.04-3.32Z M166.92-21.20Q170.88-21.20 173.22-18.90Q175.56-16.60 175.56-12.20L175.56-12.20L175.56 0L172.72 0L172.72-11.92Q172.72-15.20 171.08-16.92Q169.44-18.64 166.40-18.64L166.40-18.64Q163-18.64 161.02-16.62Q159.04-14.60 159.04-11.04L159.04-11.04L159.04 0L156.20 0L156.20-29.68L159.04-29.68L159.04-17.36Q160.20-19.20 162.24-20.20Q164.28-21.20 166.92-21.20L166.92-21.20Z M192.64-21.20Q196.76-21.20 198.96-19.14Q201.16-17.08 201.16-13.04L201.16-13.04L201.16 0L198.44 0L198.44-3.28Q197.48-1.64 195.62-0.72Q193.76 0.20 191.20 0.20L191.20 0.20Q187.68 0.20 185.60-1.48Q183.52-3.16 183.52-5.92L183.52-5.92Q183.52-8.60 185.46-10.24Q187.40-11.88 191.64-11.88L191.64-11.88L198.32-11.88L198.32-13.16Q198.32-15.88 196.80-17.30Q195.28-18.72 192.36-18.72L192.36-18.72Q190.36-18.72 188.52-18.06Q186.68-17.40 185.36-16.24L185.36-16.24L184.08-18.36Q185.68-19.72 187.92-20.46Q190.16-21.20 192.64-21.20L192.64-21.20ZM191.64-2.04Q194.04-2.04 195.76-3.14Q197.48-4.24 198.32-6.32L198.32-6.32L198.32-9.76L191.72-9.76Q186.32-9.76 186.32-6L186.32-6Q186.32-4.16 187.72-3.10Q189.12-2.04 191.64-2.04L191.64-2.04Z M210.88 0L210.88-29.68L213.72-29.68L213.72 0L210.88 0Z M223.64 0L223.64-21.04L226.48-21.04L226.48 0L223.64 0ZM225.08-25.64Q224.20-25.64 223.60-26.24Q223-26.84 223-27.68L223-27.68Q223-28.48 223.60-29.08Q224.20-29.68 225.08-29.68L225.08-29.68Q225.96-29.68 226.56-29.10Q227.16-28.52 227.16-27.72L227.16-27.72Q227.16-26.84 226.56-26.24Q225.96-25.64 225.08-25.64L225.08-25.64Z M263.76-21.04L266.56-21.04L257.20 0L254.28 0L244.96-21.04L247.92-21.04L255.80-3.12L263.76-21.04Z M272.56 0L272.56-21.04L275.40-21.04L275.40 0L272.56 0ZM274.00-25.64Q273.12-25.64 272.52-26.24Q271.92-26.84 271.92-27.68L271.92-27.68Q271.92-28.48 272.52-29.08Q273.12-29.68 274.00-29.68L274.00-29.68Q274.88-29.68 275.48-29.10Q276.08-28.52 276.08-27.72L276.08-27.72Q276.08-26.84 275.48-26.24Q274.88-25.64 274.00-25.64L274.00-25.64Z M301.68-29.68L304.52-29.68L304.52 0L301.80 0L301.80-4.16Q300.52-2.04 298.42-0.92Q296.32 0.20 293.68 0.20L293.68 0.20Q290.72 0.20 288.32-1.16Q285.92-2.52 284.56-4.96Q283.20-7.40 283.20-10.52L283.20-10.52Q283.20-13.64 284.56-16.08Q285.92-18.52 288.32-19.86Q290.72-21.20 293.68-21.20L293.68-21.20Q296.24-21.20 298.30-20.14Q300.36-19.08 301.68-17.04L301.68-17.04L301.68-29.68ZM293.92-2.32Q296.12-2.32 297.90-3.34Q299.68-4.36 300.70-6.24Q301.72-8.12 301.72-10.52L301.72-10.52Q301.72-12.92 300.70-14.80Q299.68-16.68 297.90-17.70Q296.12-18.72 293.92-18.72L293.92-18.72Q291.68-18.72 289.90-17.70Q288.12-16.68 287.10-14.80Q286.08-12.92 286.08-10.52L286.08-10.52Q286.08-8.12 287.10-6.24Q288.12-4.36 289.90-3.34Q291.68-2.32 293.92-2.32L293.92-2.32Z M329.32-21.04L332.12-21.04L321.60 2.52Q320.32 5.48 318.64 6.72Q316.96 7.96 314.60 7.96L314.60 7.96Q313.08 7.96 311.76 7.48Q310.44 7 309.48 6.04L309.48 6.04L310.80 3.92Q312.40 5.52 314.64 5.52L314.64 5.52Q316.08 5.52 317.10 4.72Q318.12 3.92 319.00 2L319.00 2L319.92-0.04L310.52-21.04L313.48-21.04L321.40-3.16L329.32-21.04Z M344.84-21.20Q348.96-21.20 351.16-19.14Q353.36-17.08 353.36-13.04L353.36-13.04L353.36 0L350.64 0L350.64-3.28Q349.68-1.64 347.82-0.72Q345.96 0.20 343.40 0.20L343.40 0.20Q339.88 0.20 337.80-1.48Q335.72-3.16 335.72-5.92L335.72-5.92Q335.72-8.60 337.66-10.24Q339.60-11.88 343.84-11.88L343.84-11.88L350.52-11.88L350.52-13.16Q350.52-15.88 349-17.30Q347.48-18.72 344.56-18.72L344.56-18.72Q342.56-18.72 340.72-18.06Q338.88-17.40 337.56-16.24L337.56-16.24L336.28-18.36Q337.88-19.72 340.12-20.46Q342.36-21.20 344.84-21.20L344.84-21.20ZM343.84-2.04Q346.24-2.04 347.96-3.14Q349.68-4.24 350.52-6.32L350.52-6.32L350.52-9.76L343.92-9.76Q338.52-9.76 338.52-6L338.52-6Q338.52-4.16 339.92-3.10Q341.32-2.04 343.84-2.04L343.84-2.04Z M373.92-21.20Q376.88-21.20 379.28-19.86Q381.68-18.52 383.04-16.08Q384.40-13.64 384.40-10.52L384.40-10.52Q384.40-7.36 383.04-4.92Q381.68-2.48 379.30-1.14Q376.92 0.20 373.92 0.20L373.92 0.20Q371.36 0.20 369.30-0.86Q367.24-1.92 365.92-3.96L365.92-3.96L365.92 7.76L363.08 7.76L363.08-21.04L365.80-21.04L365.80-16.88Q367.08-18.96 369.18-20.08Q371.28-21.20 373.92-21.20L373.92-21.20ZM373.72-2.32Q375.92-2.32 377.72-3.34Q379.52-4.36 380.54-6.24Q381.56-8.12 381.56-10.52L381.56-10.52Q381.56-12.92 380.54-14.78Q379.52-16.64 377.72-17.68Q375.92-18.72 373.72-18.72L373.72-18.72Q371.48-18.72 369.70-17.68Q367.92-16.64 366.90-14.78Q365.88-12.92 365.88-10.52L365.88-10.52Q365.88-8.12 366.90-6.24Q367.92-4.36 369.70-3.34Q371.48-2.32 373.72-2.32L373.72-2.32Z M410.56-10.52L410.52-9.64L392.92-9.64Q393.16-6.36 395.44-4.34Q397.72-2.32 401.20-2.32L401.20-2.32Q403.16-2.32 404.80-3.02Q406.44-3.72 407.64-5.08L407.64-5.08L409.24-3.24Q407.84-1.56 405.74-0.68Q403.64 0.20 401.12 0.20L401.12 0.20Q397.88 0.20 395.38-1.18Q392.88-2.56 391.48-5Q390.08-7.44 390.08-10.52L390.08-10.52Q390.08-13.60 391.42-16.04Q392.76-18.48 395.10-19.84Q397.44-21.20 400.36-21.20L400.36-21.20Q403.28-21.20 405.60-19.84Q407.92-18.48 409.24-16.06Q410.56-13.64 410.56-10.52L410.56-10.52ZM400.36-18.76Q397.32-18.76 395.26-16.82Q393.20-14.88 392.92-11.76L392.92-11.76L407.84-11.76Q407.56-14.88 405.50-16.82Q403.44-18.76 400.36-18.76L400.36-18.76Z M436.72-10.52L436.68-9.64L419.08-9.64Q419.32-6.36 421.60-4.34Q423.88-2.32 427.36-2.32L427.36-2.32Q429.32-2.32 430.96-3.02Q432.60-3.72 433.80-5.08L433.80-5.08L435.40-3.24Q434.00-1.56 431.90-0.68Q429.80 0.20 427.28 0.20L427.28 0.20Q424.04 0.20 421.54-1.18Q419.04-2.56 417.64-5Q416.24-7.44 416.24-10.52L416.24-10.52Q416.24-13.60 417.58-16.04Q418.92-18.48 421.26-19.84Q423.60-21.20 426.52-21.20L426.52-21.20Q429.44-21.20 431.76-19.84Q434.08-18.48 435.40-16.06Q436.72-13.64 436.72-10.52L436.72-10.52ZM426.52-18.76Q423.48-18.76 421.42-16.82Q419.36-14.88 419.08-11.76L419.08-11.76L434.00-11.76Q433.72-14.88 431.66-16.82Q429.60-18.76 426.52-18.76L426.52-18.76Z M454.60-3.32L455.60-1.28Q454.80-0.56 453.62-0.18Q452.44 0.20 451.16 0.20L451.16 0.20Q448.20 0.20 446.60-1.40Q445.00-3 445.00-5.92L445.00-5.92L445.00-18.64L441.24-18.64L441.24-21.04L445.00-21.04L445.00-25.64L447.84-25.64L447.84-21.04L454.24-21.04L454.24-18.64L447.84-18.64L447.84-6.08Q447.84-4.20 448.78-3.22Q449.72-2.24 451.48-2.24L451.48-2.24Q452.36-2.24 453.18-2.52Q454.00-2.80 454.60-3.32L454.60-3.32Z M473.48-21.20Q477.44-21.20 479.78-18.90Q482.12-16.60 482.12-12.20L482.12-12.20L482.12 0L479.28 0L479.28-11.92Q479.28-15.20 477.64-16.92Q476.00-18.64 472.96-18.64L472.96-18.64Q469.56-18.64 467.58-16.62Q465.60-14.60 465.60-11.04L465.60-11.04L465.60 0L462.76 0L462.76-29.68L465.60-29.68L465.60-17.36Q466.76-19.20 468.80-20.20Q470.84-21.20 473.48-21.20L473.48-21.20Z"/></g>
</svg>
</g><g opacity="1" transform="rotate(0 48.0338 192.6253)">
<svg width="342.5944" height="50" x="48.0338" y="192.6253" version="1.1" preserveAspectRatio="none" viewBox="0 -29.6 268.32 39.160000000000004">
  <g transform="matrix(1 0 0 1 0 0)" class="companyName"><path id="id-D6z1nYkh17" d="M26.32-0.68Q25.28-0.32 23.94-0.16Q22.60 0 20.24 0L20.24 0L13.64 0Q14.16-0.12 14.76-0.90Q15.36-1.68 15.36-3.92L15.36-3.92L15.36-23.72Q15.36-25.80 14.80-26.58Q14.24-27.36 13.68-27.52L13.68-27.52L20.24-27.52Q22.80-27.52 24.14-27.30Q25.48-27.08 26.48-26.64L26.48-26.64Q28.24-25.80 29.20-24.28Q30.16-22.76 30.16-21L30.16-21Q30.16-18.32 28.54-16.38Q26.92-14.44 24.28-13.88L24.28-13.88Q26.08-13.68 27.70-12.84Q29.32-12 30.34-10.56Q31.36-9.12 31.36-7.28L31.36-7.28Q31.36-4.72 30-3.10Q28.64-1.48 26.32-0.68L26.32-0.68ZM25.20-24.72Q24.40-25.32 23.48-25.62Q22.56-25.92 21-25.92L21-25.92L18.24-25.92L18.24-14.56L21.48-14.56Q22.92-14.56 23.88-15Q24.84-15.44 25.56-16.16L25.56-16.16Q26.32-16.92 26.76-18Q27.20-19.08 27.20-20.20L27.20-20.20Q27.20-21.56 26.70-22.76Q26.20-23.96 25.20-24.72L25.20-24.72ZM26.04-11.80Q25.28-12.40 24.16-12.68Q23.04-12.96 21.12-12.96L21.12-12.96L18.24-12.96L18.24-1.60L22.04-1.60Q24.92-1.60 26.54-2.96Q28.16-4.32 28.16-7.28L28.16-7.28Q28.16-10.04 26.04-11.80L26.04-11.80Z M55.28-25.40Q55.28-26.20 54.84-26.78Q54.40-27.36 53.48-27.52L53.48-27.52L60.20-27.52Q59.68-27.44 58.80-26.60Q57.92-25.76 56.96-23.48L56.96-23.48L46.84 0.96L36.56-23.60Q35.68-25.72 34.82-26.54Q33.96-27.36 33.40-27.52L33.40-27.52L40.08-27.52Q39-27.24 39-26.12L39-26.12Q39-25.52 39.28-24.84Q39.56-24.16 39.60-24.04L39.60-24.04L47.36-5.04L54.88-23.52Q55.28-24.44 55.28-25.40L55.28-25.40Z M79.96 0.48Q77.88 0.48 75.96-0.10Q74.04-0.68 72.52-1.72L72.52-1.72L72.52-6.56Q73.56-3.88 75.70-2.50Q77.84-1.12 80.16-1.12L80.16-1.12Q82.48-1.12 84.04-2.66Q85.60-4.20 85.60-6.48L85.60-6.48Q85.60-8 84.98-9.08Q84.36-10.16 83-11.10Q81.64-12.04 79.16-13.20L79.16-13.20Q75.68-14.80 74.10-16.54Q72.52-18.28 72.52-20.76L72.52-20.76Q72.52-22.88 73.54-24.54Q74.56-26.20 76.30-27.10Q78.04-28 80.12-28L80.12-28Q81.92-28 83.64-27.50Q85.36-27 86.84-26.08L86.84-26.08L86.84-21.76Q85.88-23.96 83.94-25.18Q82-26.40 80-26.40L80-26.40Q77.72-26.40 76.32-24.92Q74.92-23.44 74.92-21.40L74.92-21.40Q74.92-19.92 75.76-18.86Q76.60-17.80 77.82-17.08Q79.04-16.36 81.24-15.32L81.24-15.32Q83.48-14.24 84.92-13.32Q86.36-12.40 87.32-10.92Q88.28-9.44 88.28-7.32L88.28-7.32Q88.28-4.92 87.14-3.16Q86-1.40 84.10-0.46Q82.20 0.48 79.96 0.48L79.96 0.48Z M96.16-12.52Q97.04-13.56 98.32-14.22Q99.60-14.88 101-14.88L101-14.88Q103.16-14.88 104.46-13.50Q105.76-12.12 105.76-9.52L105.76-9.52L105.76-3.96Q105.76-2.28 106.12-1.40Q106.48-0.52 106.92-0.20Q107.36 0.12 107.36 0L107.36 0L101.60 0Q101.60 0.12 102.04-0.18Q102.48-0.48 102.84-1.36Q103.20-2.24 103.20-4L103.20-4L103.20-8.56Q103.20-9.92 102.84-10.72Q102.48-11.52 101.88-12.04L101.88-12.04Q100.96-12.80 99.68-12.80L99.68-12.80Q98.24-12.80 97.20-11.86Q96.16-10.92 96.16-9.24L96.16-9.24L96.16-4Q96.16-2.28 96.52-1.40Q96.88-0.52 97.34-0.20Q97.80 0.12 97.80 0L97.80 0L92.04 0Q92.04 0.12 92.48-0.18Q92.92-0.48 93.26-1.38Q93.60-2.28 93.60-4L93.60-4L93.60-24.60Q93.60-26.28 93.06-26.90Q92.52-27.52 91.84-27.52L91.84-27.52L91.60-27.52L96.16-29.60L96.16-12.52Z M110.56-6.84Q110.56-8.92 111.58-10.78Q112.60-12.64 114.40-13.76Q116.20-14.88 118.40-14.88L118.40-14.88Q120.52-14.88 122.24-13.90Q123.96-12.92 124.94-11.24Q125.92-9.56 125.92-7.56L125.92-7.56Q125.92-5.48 124.90-3.62Q123.88-1.76 122.08-0.64Q120.28 0.48 118.08 0.48L118.08 0.48Q115.96 0.48 114.24-0.50Q112.52-1.48 111.54-3.16Q110.56-4.84 110.56-6.84L110.56-6.84ZM123.04-6.40Q123.04-8.08 122.40-9.72Q121.76-11.36 120.60-12.40Q119.44-13.44 117.92-13.44L117.92-13.44Q115.80-13.44 114.62-11.84Q113.44-10.24 113.44-8L113.44-8Q113.44-6.32 114.08-4.68Q114.72-3.04 115.88-2Q117.04-0.96 118.56-0.96L118.56-0.96Q120.68-0.96 121.86-2.56Q123.04-4.16 123.04-6.40L123.04-6.40Z M133.28 5.28Q133.28 7.04 133.64 7.92Q134 8.80 134.44 9.10Q134.88 9.40 134.88 9.28L134.88 9.28L129.12 9.28Q129.12 9.40 129.56 9.10Q130 8.80 130.36 7.90Q130.72 7 130.72 5.28L130.72 5.28L130.72-10.04Q130.72-11.72 130.18-12.34Q129.64-12.96 128.96-12.96L128.96-12.96L133.28-14.88L133.28-12.28Q133.76-13.08 135.02-13.98Q136.28-14.88 138.32-14.88L138.32-14.88Q140.08-14.88 141.48-14Q142.88-13.12 143.68-11.56Q144.48-10 144.48-8.08L144.48-8.08Q144.48-5.64 143.48-3.76Q142.48-1.88 140.88-0.76L140.88-0.76Q139.08 0.48 136.96 0.48L136.96 0.48Q135.56 0.48 134.64 0.10Q133.72-0.28 133.28-0.60L133.28-0.60L133.28 5.28ZM141.60-6.88Q141.60-9.40 140.42-11.26Q139.24-13.12 137-13.12L137-13.12Q136.16-13.12 135.28-12.66Q134.40-12.20 133.84-11.40Q133.28-10.60 133.28-9.60L133.28-9.60L133.28-4.88Q133.28-3.60 133.58-2.80Q133.88-2 134.52-1.60L134.52-1.60Q135.52-0.96 136.96-0.96L136.96-0.96Q138.96-0.96 140.28-2.58Q141.60-4.20 141.60-6.88L141.60-6.88Z M151.84 5.28Q151.84 7.04 152.20 7.92Q152.56 8.80 153 9.10Q153.44 9.40 153.44 9.28L153.44 9.28L147.68 9.28Q147.68 9.40 148.12 9.10Q148.56 8.80 148.92 7.90Q149.28 7 149.28 5.28L149.28 5.28L149.28-10.04Q149.28-11.72 148.74-12.34Q148.20-12.96 147.52-12.96L147.52-12.96L151.84-14.88L151.84-12.28Q152.32-13.08 153.58-13.98Q154.84-14.88 156.88-14.88L156.88-14.88Q158.64-14.88 160.04-14Q161.44-13.12 162.24-11.56Q163.04-10 163.04-8.08L163.04-8.08Q163.04-5.64 162.04-3.76Q161.04-1.88 159.44-0.76L159.44-0.76Q157.64 0.48 155.52 0.48L155.52 0.48Q154.12 0.48 153.20 0.10Q152.28-0.28 151.84-0.60L151.84-0.60L151.84 5.28ZM160.16-6.88Q160.16-9.40 158.98-11.26Q157.80-13.12 155.56-13.12L155.56-13.12Q154.72-13.12 153.84-12.66Q152.96-12.20 152.40-11.40Q151.84-10.60 151.84-9.60L151.84-9.60L151.84-4.88Q151.84-3.60 152.14-2.80Q152.44-2 153.08-1.60L153.08-1.60Q154.08-0.96 155.52-0.96L155.52-0.96Q157.52-0.96 158.84-2.58Q160.16-4.20 160.16-6.88L160.16-6.88Z M167.84-10.04Q167.84-11.72 167.30-12.34Q166.76-12.96 166.08-12.96L166.08-12.96L170.40-14.88L170.40-4Q170.40-2.24 170.76-1.36Q171.12-0.48 171.56-0.18Q172.00 0.12 172.00 0L172.00 0L166.24 0Q166.24 0.12 166.68-0.18Q167.12-0.48 167.48-1.36Q167.84-2.24 167.84-4L167.84-4L167.84-10.04ZM169.08-19.72Q168.20-19.72 167.70-20.30Q167.20-20.88 167.20-21.64L167.20-21.64Q167.20-22.40 167.70-22.98Q168.20-23.56 169.08-23.56L169.08-23.56Q169.96-23.56 170.46-22.98Q170.96-22.40 170.96-21.64L170.96-21.64Q170.96-20.88 170.46-20.30Q169.96-19.72 169.08-19.72L169.08-19.72Z M179.36-12.16Q180.28-13.40 181.54-14.14Q182.80-14.88 184.20-14.88L184.20-14.88Q186.36-14.88 187.66-13.50Q188.96-12.12 188.96-9.52L188.96-9.52L188.96-3.96Q188.96-2.28 189.32-1.40Q189.68-0.52 190.12-0.20Q190.56 0.12 190.56 0L190.56 0L184.80 0Q184.80 0.12 185.24-0.18Q185.68-0.48 186.04-1.36Q186.40-2.24 186.40-4L186.40-4L186.40-8.56Q186.40-9.92 186.04-10.72Q185.68-11.52 185.08-12.04L185.08-12.04Q184.16-12.80 182.88-12.80L182.88-12.80Q181.44-12.80 180.40-11.86Q179.36-10.92 179.36-9.24L179.36-9.24L179.36-4Q179.36-2.28 179.72-1.40Q180.08-0.52 180.54-0.20Q181.00 0.12 181.00 0L181.00 0L175.24 0Q175.24 0.12 175.68-0.18Q176.12-0.48 176.46-1.38Q176.80-2.28 176.80-4L176.80-4L176.80-10.04Q176.80-11.72 176.26-12.34Q175.72-12.96 175.04-12.96L175.04-12.96L179.36-14.88L179.36-12.16Z M202.64-14.56L208.12-14.56L208.12-12.96L204.80-12.96Q206.24-11.20 206.24-9.36L206.24-9.36Q206.24-7.80 205.48-6.46Q204.72-5.12 203.30-4.32Q201.88-3.52 200.00-3.52L200.00-3.52Q199.04-3.52 198.08-3.68L198.08-3.68Q196.64-2.88 196.64-1.88L196.64-1.88Q196.64-1.48 196.84-1.12Q197.04-0.76 197.44-0.60L197.44-0.60Q198.00-0.36 198.88-0.26Q199.76-0.16 200.72-0.12Q201.68-0.08 202.08-0.08L202.08-0.08Q205.20 0.04 206.52 1.12Q207.84 2.20 207.84 3.72L207.84 3.72Q207.84 5.32 206.82 6.66Q205.80 8 203.88 8.78Q201.96 9.56 199.44 9.56L199.44 9.56Q197.60 9.56 196.24 9.04Q194.88 8.52 194.16 7.68Q193.44 6.84 193.44 5.88L193.44 5.88Q193.44 4.60 194.54 3.50Q195.64 2.40 197.28 1.84L197.28 1.84Q195.96 1.76 195.18 0.96Q194.40 0.16 194.40-0.76L194.40-0.76Q194.40-1.76 195.08-2.50Q195.76-3.24 197.04-4.08L197.04-4.08Q195.60-4.72 194.84-6.08Q194.08-7.44 194.08-8.96L194.08-8.96Q194.08-10.44 194.82-11.80Q195.56-13.16 197.02-14.02Q198.48-14.88 200.48-14.88L200.48-14.88Q201.52-14.88 202.64-14.56L202.64-14.56ZM200.04-13.44Q198.56-13.44 197.60-12.38Q196.64-11.32 196.64-9.68L196.64-9.68Q196.64-7.64 197.70-6.34Q198.76-5.04 200.28-5.04L200.28-5.04Q201.88-5.04 202.78-6.10Q203.68-7.16 203.68-8.92L203.68-8.92Q203.68-10.92 202.62-12.18Q201.56-13.44 200.04-13.44L200.04-13.44ZM200.20 2.32L199.36 2.32Q197.88 2.32 196.94 3.24Q196.00 4.16 196.00 5.28L196.00 5.28Q196.00 6.36 197.22 7.14Q198.44 7.92 200.48 7.92L200.48 7.92Q202.92 7.92 204.26 7Q205.60 6.08 205.60 4.72L205.60 4.72Q205.60 3.52 204.32 2.92Q203.04 2.32 200.20 2.32L200.20 2.32Z M225.88 0.48Q224.68 0.48 223.40 0.08Q222.12-0.32 221.28-0.96L221.28-0.96L221.28-4.48Q222.04-2.60 223.34-1.78Q224.64-0.96 226.16-0.96L226.16-0.96Q227.40-0.96 228.18-1.64Q228.96-2.32 228.96-3.12L228.96-3.12Q228.96-4 228.16-4.60Q227.36-5.20 225.72-5.96L225.72-5.96Q223.60-6.96 222.44-7.92Q221.28-8.88 221.28-10.52L221.28-10.52Q221.28-12.32 222.64-13.60Q224.00-14.88 226.20-14.88L226.20-14.88Q227.72-14.88 228.84-14.52Q229.96-14.16 230.52-13.72L230.52-13.72L229.88-10.72Q229.40-12.08 228.28-12.76Q227.16-13.44 225.92-13.44L225.92-13.44Q224.84-13.44 224.14-12.80Q223.44-12.16 223.44-11.36L223.44-11.36Q223.44-10.28 224.30-9.64Q225.16-9 226.92-8.24L226.92-8.24Q229.00-7.36 230.10-6.46Q231.20-5.56 231.20-3.92L231.20-3.92Q231.20-2.76 230.56-1.76Q229.92-0.76 228.70-0.14Q227.48 0.48 225.88 0.48L225.88 0.48Z M236-10.04Q236-11.72 235.46-12.34Q234.92-12.96 234.24-12.96L234.24-12.96L238.56-14.88L238.56-4Q238.56-2.24 238.92-1.36Q239.28-0.48 239.72-0.18Q240.16 0.12 240.16 0L240.16 0L234.40 0Q234.40 0.12 234.84-0.18Q235.28-0.48 235.64-1.36Q236-2.24 236-4L236-4L236-10.04ZM237.24-19.72Q236.36-19.72 235.86-20.30Q235.36-20.88 235.36-21.64L235.36-21.64Q235.36-22.40 235.86-22.98Q236.36-23.56 237.24-23.56L237.24-23.56Q238.12-23.56 238.62-22.98Q239.12-22.40 239.12-21.64L239.12-21.64Q239.12-20.88 238.62-20.30Q238.12-19.72 237.24-19.72L237.24-19.72Z M248.92 0.48Q246.96 0.48 245.96-0.86Q244.96-2.20 244.96-4.08L244.96-4.08L244.96-12.96L242.72-12.96L247.52-18.40L247.52-14.56L252.64-14.56L252.64-12.96L247.52-12.96L247.52-4.52Q247.52-3 248.32-2.22Q249.12-1.44 250.16-1.44L250.16-1.44Q250.96-1.44 251.72-1.92Q252.48-2.40 252.96-3.24L252.96-3.24Q252.36 0.48 248.92 0.48L248.92 0.48Z M262.44 0.48Q260.28 0.48 258.72-0.58Q257.16-1.64 256.34-3.34Q255.52-5.04 255.52-6.96L255.52-6.96Q255.52-9.44 256.50-11.24Q257.48-13.04 259.04-13.96Q260.60-14.88 262.28-14.88L262.28-14.88Q264.68-14.88 266.42-13.14Q268.16-11.40 268.32-8.32L268.32-8.32L257.92-8.32Q257.92-6.40 258.64-4.94Q259.36-3.48 260.58-2.70Q261.80-1.92 263.24-1.92L263.24-1.92Q267-1.92 268.32-4.32L268.32-4.32Q267.96-2.16 266.36-0.84Q264.76 0.48 262.44 0.48L262.44 0.48ZM262-13.56Q260.44-13.56 259.32-12.46Q258.20-11.36 257.96-9.60L257.96-9.60L265.24-9.60Q265.24-11.44 264.26-12.50Q263.28-13.56 262-13.56L262-13.56Z"/></g>
</svg>
</g></svg></svg>