<svg version="1.1" preserveAspectRatio="none" xmlns="http://www.w3.org/2000/svg" width="500" height="500" viewBox="0 0 500 500"><rect width="100%" height="100%" fill="#FFEB62" fill-opacity="1"/><svg viewBox="30.3934 -66.1675 345.0492 385.7461" width="297.8679074137107" height="333" x="101.066px" y="83.5px" xmlns="http://www.w3.org/2000/svg" xmlns:xlink="http://www.w3.org/1999/xlink" preserveAspectRatio="none"><defs></defs><style>.companyName {fill:#262626;fill-opacity:1;}.icon1 {fill:#262626;fill-opacity:1;}.icon2 {fill:#FF7B04;fill-opacity:1;}.icon3 {fill:#928B53;fill-opacity:1;}.icon3-str {stroke:#928B53;stroke-opacity:1;}.text {fill:#262626;fill-opacity:1;}</style><g opacity="1" transform="rotate(0 30.3934 -66.1675)">
<svg width="345.0492" height="284.7461" x="30.3934" y="-66.1675" version="1.1" preserveAspectRatio="none" viewBox="20 31.961000442504883 160.00209045410156 132.03900146484375">
  <g transform="matrix(1 0 0 1 0 0)" ><g><path clip-rule="evenodd" fill-rule="evenodd" d="m81.095 32.027.032.013.036-.079 2.251 1.042 7.248 3.056.921 3.019-9.209-3.817-1.193 2.58-2.255-1.044 1.786-3.861.383-.909z" data-color="1" class="icon1"></path><path d="M59.084 73.581c13.73 3.306 31.047 83.922 19.102 90.419-17.299-2.846-25.834-15.55-25.834-15.55l6.732-74.869z" clip-rule="evenodd" fill-rule="evenodd" data-color="2" class="icon2"></path><path d="M59.084 73.581c13.73 3.306 31.047 83.922 19.102 90.419-17.299-2.846-25.834-15.55-25.834-15.55l6.732-74.869z" clip-rule="evenodd" fill-rule="evenodd" opacity=".2"></path><path d="M34.638 97.376s30.577-19.43 40.671-17.636c6.383-.149 15.733 3.139 20.483 2.242 4.75-.897 19.63-.404 20.892 1.613 2.301 1.943 2.436 9.333-1.424 12.323-7.57 5.978-27.483 6.54-27.483 6.54-4.527 5.231 11.541 6.128 26.013 7.323 3.681-.364 13.081 1.477 17.996-.189 1.065-1.408 4.672-6.531 4.672-6.531-1.473-2.134-9.366-13.469-10.28-16.619-1.194-4.116-2.314-10.375 2.187-13.03 1.643-.969 3.699-.99 5.575.051 1.212.772 4.799 4.683 6.976 7.473.549-4.029.666-11.404 4.768-13.489 2.979-1.514 8.6-.07 10.954 5.486 1.552-3.026 5.541-7.499 10.626-5.448 1.862.786 5.713 2.473 3.488 12.181 5.702-1.906 9.735.448 9.203 3.363-4.107 12.853-8.955 24.362-13.804 30.789-9.896 11.708-18.158 18.185-27.609 22.419-30.973 12.056-61.649 16.341-94.7 18.234a564621.91 564621.91 0 0 1-9.204-57.095z" clip-rule="evenodd" fill-rule="evenodd" data-color="3" class="icon3"></path><path d="M20 84.188c19.955-6.326 19.129-4.281 39.084-10.607-.461 30.139 3.245 79.524 19.102 90.419l-55.651-2.676L20 84.188z" clip-rule="evenodd" fill-rule="evenodd" data-color="2" class="icon2"></path><path d="M122.078 110.539c-3.558 0-7.547-.098-11.175-.283-9.499-.485-21.368-1.699-23.973-4.723-.52-.604-1.149-1.856.485-3.451a.517.517 0 0 1 .735.012c.2.207.194.539-.011.74-1.101 1.074-.697 1.642-.525 1.885 3.66 5.142 41.75 5.358 44.274 4.276a.54.54 0 0 1 .055-.204c2.769-5.493 7.136-9.493 10.987-12.19-1.479-4.005-2.444-9.936-2.534-15.657a.522.522 0 0 1 .511-.532c.27.002.523.226.528.515.085 5.41 1.01 11.209 2.382 15.068a42.906 42.906 0 0 1 6.029-3.349c.576-4.142 2.973-11.717 6.31-19.914a.52.52 0 1 1 .962.397c-3.385 8.316-5.791 15.957-6.279 19.941l-.036.297-.273.119c-1.22.533-3.659 1.701-6.438 3.579a.522.522 0 0 1-.514.354c-3.356 2.341-7.117 5.695-9.799 10.192 6.186-4.353 17.387-10.623 24.025-13.949 2.252-4.486 8.386-13.438 12.826-14.506a.519.519 0 0 1 .626.387.524.524 0 0 1-.385.631c-3.64.876-9.666 8.943-12.215 14.112l-.078.158-.157.078c-7.119 3.556-20.434 11.05-25.885 15.299-.63.492-5.046.718-10.458.718z"></path><path clip-rule="evenodd" fill-rule="evenodd" d="M90.702 36.523h48.686l-5.641 25.921H98.866l-8.164-25.921z" data-color="1" class="icon1"></path><path d="M133.748 62.967H98.866a.522.522 0 0 1-.496-.365l-8.164-25.921a.521.521 0 0 1 .496-.681h48.686a.52.52 0 0 1 .508.635l-5.64 25.921a.522.522 0 0 1-.508.411zm-34.502-1.046h34.083l5.412-24.874h-47.33l7.835 24.874z"></path><path d="M134.876 56.736v1.047H97.233v-1.047h37.643z"></path><path d="M100.424 63.659c1.762 0 3.191 1.439 3.191 3.213 0 1.775-1.429 3.213-3.191 3.213-1.763 0-3.191-1.439-3.191-3.213s1.429-3.213 3.191-3.213z" clip-rule="evenodd" fill-rule="evenodd" data-color="1" class="icon1"></path><path d="M132.189 63.659c1.762 0 3.191 1.439 3.191 3.213 0 1.775-1.429 3.213-3.191 3.213s-3.191-1.439-3.191-3.213c-.001-1.774 1.428-3.213 3.191-3.213z" clip-rule="evenodd" fill-rule="evenodd" data-color="1" class="icon1"></path><path d="m108.196 62.508-1.22-9.909H95.6v-1.047h11.247l-.509-4.137h-12.37v-1.047h12.241l-.51-4.138H92.335v-1.047h13.236l-.566-4.596 1.031-.129.582 4.725h18.813l.582-4.726 1.031.129-.566 4.597h11.782v1.047h-11.911l-.509 4.138h11.292v1.047h-11.421l-.509 4.137h10.802v1.047h-10.931l-1.22 9.909-1.031-.129 1.204-9.78h-16.002l1.204 9.781-1.032.128zm-.302-10.956h16.26l.509-4.137h-17.279l.51 4.137zm-.638-5.184h17.536l.51-4.138h-18.555l.509 4.138z"></path><path d="M109.116 87.356c-2.883 0-6.317-.562-8.37-2.307a.701.701 0 0 1-.083-.983.69.69 0 0 1 .976-.083c2.637 2.241 8.611 2.241 11.072 1.613l.049-.01c.711-.128 1.333-.689 1.393-1.087.043-.283-.287-.52-.572-.669a.7.7 0 0 1-.295-.941.69.69 0 0 1 .934-.297c1.357.711 1.363 1.718 1.302 2.117-.174 1.147-1.399 2.038-2.494 2.245-.928.235-2.338.402-3.912.402z"></path><path d="M137.845 121.026a.523.523 0 0 1-.298-.094c-4.031-2.84-6.618-8.89-5.83-11.668a.52.52 0 1 1 1 .288c-.611 2.154 1.624 7.844 5.426 10.523a.527.527 0 0 1 .128.729.517.517 0 0 1-.426.222zm26.346-17.412a.519.519 0 0 1-.24-.059c-6.677-3.507-6.299-9.298-6.28-9.543a.527.527 0 0 1 .559-.48.522.522 0 0 1 .477.562c-.016.217-.321 5.358 5.724 8.534.255.134.353.45.221.706a.518.518 0 0 1-.461.28z"></path></g></g>
</svg>
</g><g opacity="1" transform="rotate(0 65.8683 299.5786)">
<svg width="274.0994" height="20" x="65.8683" y="299.5786" version="1.1" preserveAspectRatio="none" viewBox="3.76 -30.88 533.4 38.92">
  <g transform="matrix(1 0 0 1 0 0)" class="text"><path id="id-6izo4zJp21" d="M23.60-14.56Q25.92-13.80 27.28-12.02Q28.64-10.24 28.64-7.60L28.64-7.60Q28.64-3.96 25.84-1.98Q23.04 0 17.68 0L17.68 0L3.76 0L3.76-28L16.88-28Q21.84-28 24.52-26.06Q27.20-24.12 27.20-20.72L27.20-20.72Q27.20-18.64 26.24-17.04Q25.28-15.44 23.60-14.56L23.60-14.56ZM16.32-23.92L8.96-23.92L8.96-16.20L16.32-16.20Q19.04-16.20 20.50-17.18Q21.96-18.16 21.96-20.04L21.96-20.04Q21.96-21.96 20.50-22.94Q19.04-23.92 16.32-23.92L16.32-23.92ZM17.36-4.08Q23.40-4.08 23.40-8.12L23.40-8.12Q23.40-12.16 17.36-12.16L17.36-12.16L8.96-12.16L8.96-4.08L17.36-4.08Z M45.88-21.60Q50.60-21.60 53.10-19.34Q55.60-17.08 55.60-12.52L55.60-12.52L55.60 0L50.88 0L50.88-2.60Q49.96-1.20 48.26-0.46Q46.56 0.28 44.16 0.28L44.16 0.28Q41.76 0.28 39.96-0.54Q38.16-1.36 37.18-2.82Q36.20-4.28 36.20-6.12L36.20-6.12Q36.20-9 38.34-10.74Q40.48-12.48 45.08-12.48L45.08-12.48L50.60-12.48L50.60-12.80Q50.60-15.04 49.26-16.24Q47.92-17.44 45.28-17.44L45.28-17.44Q43.48-17.44 41.74-16.88Q40-16.32 38.80-15.32L38.80-15.32L36.84-18.96Q38.52-20.24 40.88-20.92Q43.24-21.60 45.88-21.60L45.88-21.60ZM45.20-3.36Q47.08-3.36 48.54-4.22Q50-5.08 50.60-6.68L50.60-6.68L50.60-9.16L45.44-9.16Q41.12-9.16 41.12-6.32L41.12-6.32Q41.12-4.96 42.20-4.16Q43.28-3.36 45.20-3.36L45.20-3.36Z M78.12-21.60Q82.16-21.60 84.60-19.24Q87.04-16.88 87.04-12.24L87.04-12.24L87.04 0L82.04 0L82.04-11.60Q82.04-14.40 80.72-15.82Q79.40-17.24 76.96-17.24L76.96-17.24Q74.20-17.24 72.60-15.58Q71-13.92 71-10.80L71-10.80L71 0L66 0L66-21.36L70.76-21.36L70.76-18.60Q72-20.08 73.88-20.84Q75.76-21.60 78.12-21.60L78.12-21.60Z M105.56-21.60Q110.28-21.60 112.78-19.34Q115.28-17.08 115.28-12.52L115.28-12.52L115.28 0L110.56 0L110.56-2.60Q109.64-1.20 107.94-0.46Q106.24 0.28 103.84 0.28L103.84 0.28Q101.44 0.28 99.64-0.54Q97.84-1.36 96.86-2.82Q95.88-4.28 95.88-6.12L95.88-6.12Q95.88-9 98.02-10.74Q100.16-12.48 104.76-12.48L104.76-12.48L110.28-12.48L110.28-12.80Q110.28-15.04 108.94-16.24Q107.60-17.44 104.96-17.44L104.96-17.44Q103.16-17.44 101.42-16.88Q99.68-16.32 98.48-15.32L98.48-15.32L96.52-18.96Q98.20-20.24 100.56-20.92Q102.92-21.60 105.56-21.60L105.56-21.60ZM104.88-3.36Q106.76-3.36 108.22-4.22Q109.68-5.08 110.28-6.68L110.28-6.68L110.28-9.16L105.12-9.16Q100.80-9.16 100.80-6.32L100.80-6.32Q100.80-4.96 101.88-4.16Q102.96-3.36 104.88-3.36L104.88-3.36Z M132.28 0.28Q129.68 0.28 127.20-0.40Q124.72-1.08 123.24-2.12L123.24-2.12L125.16-5.92Q126.60-4.96 128.62-4.38Q130.64-3.80 132.60-3.80L132.60-3.80Q137.08-3.80 137.08-6.16L137.08-6.16Q137.08-7.28 135.94-7.72Q134.80-8.16 132.28-8.56L132.28-8.56Q129.64-8.96 127.98-9.48Q126.32-10 125.10-11.30Q123.88-12.60 123.88-14.92L123.88-14.92Q123.88-17.96 126.42-19.78Q128.96-21.60 133.28-21.60L133.28-21.60Q135.48-21.60 137.68-21.10Q139.88-20.60 141.28-19.76L141.28-19.76L139.36-15.96Q136.64-17.56 133.24-17.56L133.24-17.56Q131.04-17.56 129.90-16.90Q128.76-16.24 128.76-15.16L128.76-15.16Q128.76-13.96 129.98-13.46Q131.20-12.96 133.76-12.52L133.76-12.52Q136.32-12.12 137.96-11.60Q139.60-11.08 140.78-9.84Q141.96-8.60 141.96-6.32L141.96-6.32Q141.96-3.32 139.36-1.52Q136.76 0.28 132.28 0.28L132.28 0.28Z M161.72-4.72L163.12-1.16Q162.24-0.44 160.98-0.08Q159.72 0.28 158.32 0.28L158.32 0.28Q154.80 0.28 152.88-1.56Q150.96-3.40 150.96-6.92L150.96-6.92L150.96-17.20L147.44-17.20L147.44-21.20L150.96-21.20L150.96-26.08L155.96-26.08L155.96-21.20L161.68-21.20L161.68-17.20L155.96-17.20L155.96-7.04Q155.96-5.48 156.72-4.66Q157.48-3.84 158.92-3.84L158.92-3.84Q160.60-3.84 161.72-4.72L161.72-4.72Z M183.36-21.60Q187.40-21.60 189.84-19.24Q192.28-16.88 192.28-12.24L192.28-12.24L192.28 0L187.28 0L187.28-11.60Q187.28-14.40 185.96-15.82Q184.64-17.24 182.20-17.24L182.20-17.24Q179.44-17.24 177.84-15.58Q176.24-13.92 176.24-10.80L176.24-10.80L176.24 0L171.24 0L171.24-29.68L176.24-29.68L176.24-18.88Q177.48-20.20 179.30-20.90Q181.12-21.60 183.36-21.60L183.36-21.60Z M210.80-21.60Q215.52-21.60 218.02-19.34Q220.52-17.08 220.52-12.52L220.52-12.52L220.52 0L215.80 0L215.80-2.60Q214.88-1.20 213.18-0.46Q211.48 0.28 209.08 0.28L209.08 0.28Q206.68 0.28 204.88-0.54Q203.08-1.36 202.10-2.82Q201.12-4.28 201.12-6.12L201.12-6.12Q201.12-9 203.26-10.74Q205.40-12.48 210-12.48L210-12.48L215.52-12.48L215.52-12.80Q215.52-15.04 214.18-16.24Q212.84-17.44 210.20-17.44L210.20-17.44Q208.40-17.44 206.66-16.88Q204.92-16.32 203.72-15.32L203.72-15.32L201.76-18.96Q203.44-20.24 205.80-20.92Q208.16-21.60 210.80-21.60L210.80-21.60ZM210.12-3.36Q212-3.36 213.46-4.22Q214.92-5.08 215.52-6.68L215.52-6.68L215.52-9.16L210.36-9.16Q206.04-9.16 206.04-6.32L206.04-6.32Q206.04-4.96 207.12-4.16Q208.20-3.36 210.12-3.36L210.12-3.36Z M230.92 0L230.92-29.68L235.92-29.68L235.92 0L230.92 0Z M246.48 0L246.48-21.36L251.48-21.36L251.48 0L246.48 0ZM249.00-24.88Q247.64-24.88 246.72-25.74Q245.80-26.60 245.80-27.88L245.80-27.88Q245.80-29.16 246.72-30.02Q247.64-30.88 249.00-30.88L249.00-30.88Q250.36-30.88 251.28-30.06Q252.20-29.24 252.20-28L252.20-28Q252.20-26.68 251.30-25.78Q250.40-24.88 249.00-24.88L249.00-24.88Z M292.28-21.36L297.08-21.36L287.92 0L282.76 0L273.60-21.36L278.80-21.36L285.44-5.52L292.28-21.36Z M304.20 0L304.20-21.36L309.20-21.36L309.20 0L304.20 0ZM306.72-24.88Q305.36-24.88 304.44-25.74Q303.52-26.60 303.52-27.88L303.52-27.88Q303.52-29.16 304.44-30.02Q305.36-30.88 306.72-30.88L306.72-30.88Q308.08-30.88 309-30.06Q309.92-29.24 309.92-28L309.92-28Q309.92-26.68 309.02-25.78Q308.12-24.88 306.72-24.88L306.72-24.88Z M335.68-29.68L340.68-29.68L340.68 0L335.88 0L335.88-2.76Q334.64-1.24 332.82-0.48Q331 0.28 328.80 0.28L328.80 0.28Q325.72 0.28 323.26-1.08Q320.80-2.44 319.40-4.94Q318-7.44 318-10.68L318-10.68Q318-13.92 319.40-16.40Q320.80-18.88 323.26-20.24Q325.72-21.60 328.80-21.60L328.80-21.60Q330.92-21.60 332.68-20.88Q334.44-20.16 335.68-18.72L335.68-18.72L335.68-29.68ZM329.40-4Q331.20-4 332.64-4.82Q334.08-5.64 334.92-7.16Q335.76-8.68 335.76-10.68L335.76-10.68Q335.76-12.68 334.92-14.20Q334.08-15.72 332.64-16.54Q331.20-17.36 329.40-17.36L329.40-17.36Q327.60-17.36 326.16-16.54Q324.72-15.72 323.88-14.20Q323.04-12.68 323.04-10.68L323.04-10.68Q323.04-8.68 323.88-7.16Q324.72-5.64 326.16-4.82Q327.60-4 329.40-4L329.40-4Z M366.44-21.36L371.24-21.36L361.24 1.72Q359.84 5.20 357.84 6.62Q355.84 8.04 353.00 8.04L353.00 8.04Q351.40 8.04 349.84 7.52Q348.28 7 347.28 6.08L347.28 6.08L349.28 2.40Q350.00 3.08 350.98 3.48Q351.96 3.88 352.96 3.88L352.96 3.88Q354.28 3.88 355.14 3.20Q356.00 2.52 356.72 0.92L356.72 0.92L357.08 0.08L347.76-21.36L352.96-21.36L359.68-5.56L366.44-21.36Z M385.84-21.60Q390.56-21.60 393.06-19.34Q395.56-17.08 395.56-12.52L395.56-12.52L395.56 0L390.84 0L390.84-2.60Q389.92-1.20 388.22-0.46Q386.52 0.28 384.12 0.28L384.12 0.28Q381.72 0.28 379.92-0.54Q378.12-1.36 377.14-2.82Q376.16-4.28 376.16-6.12L376.16-6.12Q376.16-9 378.30-10.74Q380.44-12.48 385.04-12.48L385.04-12.48L390.56-12.48L390.56-12.80Q390.56-15.04 389.22-16.24Q387.88-17.44 385.24-17.44L385.24-17.44Q383.44-17.44 381.70-16.88Q379.96-16.32 378.76-15.32L378.76-15.32L376.80-18.96Q378.48-20.24 380.84-20.92Q383.20-21.60 385.84-21.60L385.84-21.60ZM385.16-3.36Q387.04-3.36 388.50-4.22Q389.96-5.08 390.56-6.68L390.56-6.68L390.56-9.16L385.40-9.16Q381.08-9.16 381.08-6.32L381.08-6.32Q381.08-4.96 382.16-4.16Q383.24-3.36 385.16-3.36L385.16-3.36Z M417.80-21.60Q420.92-21.60 423.38-20.24Q425.84-18.88 427.24-16.40Q428.64-13.92 428.64-10.68L428.64-10.68Q428.64-7.44 427.24-4.94Q425.84-2.44 423.38-1.08Q420.92 0.28 417.80 0.28L417.80 0.28Q413.48 0.28 410.96-2.60L410.96-2.60L410.96 7.76L405.96 7.76L405.96-21.36L410.72-21.36L410.72-18.56Q411.96-20.08 413.78-20.84Q415.60-21.60 417.80-21.60L417.80-21.60ZM417.24-4Q420.00-4 421.78-5.84Q423.56-7.68 423.56-10.68L423.56-10.68Q423.56-13.68 421.78-15.52Q420.00-17.36 417.24-17.36L417.24-17.36Q415.44-17.36 414.00-16.54Q412.56-15.72 411.72-14.20Q410.88-12.68 410.88-10.68L410.88-10.68Q410.88-8.68 411.72-7.16Q412.56-5.64 414.00-4.82Q415.44-4 417.24-4L417.24-4Z M457.48-10.56Q457.48-10.04 457.40-9.08L457.40-9.08L440.64-9.08Q441.08-6.72 442.94-5.34Q444.80-3.96 447.56-3.96L447.56-3.96Q451.08-3.96 453.36-6.28L453.36-6.28L456.04-3.20Q454.60-1.48 452.40-0.60Q450.20 0.28 447.44 0.28L447.44 0.28Q443.92 0.28 441.24-1.12Q438.56-2.52 437.10-5.02Q435.64-7.52 435.64-10.68L435.64-10.68Q435.64-13.80 437.06-16.30Q438.48-18.80 441.00-20.20Q443.52-21.60 446.68-21.60L446.68-21.60Q449.80-21.60 452.26-20.22Q454.72-18.84 456.10-16.34Q457.48-13.84 457.48-10.56L457.48-10.56ZM446.68-17.60Q444.28-17.60 442.62-16.18Q440.96-14.76 440.60-12.40L440.60-12.40L452.72-12.40Q452.40-14.72 450.76-16.16Q449.12-17.60 446.68-17.60L446.68-17.60Z M486.36-10.56Q486.36-10.04 486.28-9.08L486.28-9.08L469.52-9.08Q469.96-6.72 471.82-5.34Q473.68-3.96 476.44-3.96L476.44-3.96Q479.96-3.96 482.24-6.28L482.24-6.28L484.92-3.20Q483.48-1.48 481.28-0.60Q479.08 0.28 476.32 0.28L476.32 0.28Q472.80 0.28 470.12-1.12Q467.44-2.52 465.98-5.02Q464.52-7.52 464.52-10.68L464.52-10.68Q464.52-13.80 465.94-16.30Q467.36-18.80 469.88-20.20Q472.40-21.60 475.56-21.60L475.56-21.60Q478.68-21.60 481.14-20.22Q483.60-18.84 484.98-16.34Q486.36-13.84 486.36-10.56L486.36-10.56ZM475.56-17.60Q473.16-17.60 471.50-16.18Q469.84-14.76 469.48-12.40L469.48-12.40L481.60-12.40Q481.28-14.72 479.64-16.16Q478.00-17.60 475.56-17.60L475.56-17.60Z M506.60-4.72L508.00-1.16Q507.12-0.44 505.86-0.08Q504.60 0.28 503.20 0.28L503.20 0.28Q499.68 0.28 497.76-1.56Q495.84-3.40 495.84-6.92L495.84-6.92L495.84-17.20L492.32-17.20L492.32-21.20L495.84-21.20L495.84-26.08L500.84-26.08L500.84-21.20L506.56-21.20L506.56-17.20L500.84-17.20L500.84-7.04Q500.84-5.48 501.60-4.66Q502.36-3.84 503.80-3.84L503.80-3.84Q505.48-3.84 506.60-4.72L506.60-4.72Z M528.24-21.60Q532.28-21.60 534.72-19.24Q537.16-16.88 537.16-12.24L537.16-12.24L537.16 0L532.16 0L532.16-11.60Q532.16-14.40 530.84-15.82Q529.52-17.24 527.08-17.24L527.08-17.24Q524.32-17.24 522.72-15.58Q521.12-13.92 521.12-10.80L521.12-10.80L521.12 0L516.12 0L516.12-29.68L521.12-29.68L521.12-18.88Q522.36-20.20 524.18-20.90Q526-21.60 528.24-21.60L528.24-21.60Z"/></g>
</svg>
</g><g opacity="1" transform="rotate(0 30.3934 258.5786)">
<svg width="345.0492" height="24" x="30.3934" y="258.5786" version="1.1" preserveAspectRatio="none" viewBox="0 -28.64 420.96000000000004 29.28">
  <g transform="matrix(1 0 0 1 0 0)" class="companyName"><path id="id-D6z1nYkh17" d="M37.56-14.40Q39.36-13.60 40.34-12.22Q41.32-10.84 41.32-8.92L41.32-8.92Q41.32-4.48 37.66-2.24Q34 0 28.24 0L28.24 0L12.08 0L17.68-28L32.52-28Q37.44-28 40-26.26Q42.56-24.52 42.56-21.32L42.56-21.32Q42.56-18.96 41.24-17.18Q39.92-15.40 37.56-14.40L37.56-14.40ZM30.24-21.40L25.64-21.40L24.80-17.24L29.60-17.24Q32.72-17.24 32.72-19.68L32.72-19.68Q32.72-20.52 32.08-20.96Q31.44-21.40 30.24-21.40L30.24-21.40ZM28.76-6.60Q30.20-6.60 31.08-7.26Q31.96-7.92 31.96-9.16L31.96-9.16Q31.96-10.04 31.30-10.52Q30.64-11 29.64-11L29.64-11L23.56-11L22.68-6.60L28.76-6.60Z M68.64-28L78.32-28L60.88 0L51.60 0L45.36-28L55.04-28L58.52-11.68L68.64-28Z M97.36 0.64Q93.72 0.64 90.52-0.14Q87.32-0.92 85.24-2.20L85.24-2.20L88.88-9.16Q93.40-6.56 98.32-6.56L98.32-6.56Q100.12-6.56 101.08-7Q102.04-7.44 102.04-8.20L102.04-8.20Q102.04-8.92 101.06-9.36Q100.08-9.80 97.96-10.32L97.96-10.32Q95.16-11.04 93.32-11.78Q91.48-12.52 90.10-14.06Q88.72-15.60 88.72-18.12L88.72-18.12Q88.72-21.28 90.42-23.66Q92.12-26.04 95.32-27.34Q98.52-28.64 102.88-28.64L102.88-28.64Q106-28.64 108.70-28.02Q111.40-27.40 113.36-26.24L113.36-26.24L109.96-19.36Q108.32-20.40 106.34-20.92Q104.36-21.44 102.28-21.44L102.28-21.44Q100.32-21.44 99.24-20.88Q98.16-20.32 98.16-19.56L98.16-19.56Q98.16-18.80 99.14-18.36Q100.12-17.92 102.36-17.40L102.36-17.40Q105.08-16.76 106.94-16.04Q108.80-15.32 110.16-13.80Q111.52-12.28 111.52-9.80L111.52-9.80Q111.52-6.68 109.80-4.32Q108.08-1.96 104.88-0.66Q101.68 0.64 97.36 0.64L97.36 0.64Z M136.28-28L145.72-28L140.12 0L130.68 0L132.76-10.32L124.04-10.32L121.96 0L112.52 0L118.12-28L127.56-28L125.56-18.08L134.28-18.08L136.28-28Z M160.44 0.64Q156.16 0.64 152.94-0.94Q149.72-2.52 147.98-5.36Q146.24-8.20 146.24-11.88L146.24-11.88Q146.24-16.76 148.50-20.58Q150.76-24.40 154.78-26.52Q158.80-28.64 163.88-28.64L163.88-28.64Q168.16-28.64 171.38-27.06Q174.60-25.48 176.34-22.64Q178.08-19.80 178.08-16.12L178.08-16.12Q178.08-11.24 175.82-7.42Q173.56-3.60 169.54-1.48Q165.52 0.64 160.44 0.64L160.44 0.64ZM161.24-7Q163.48-7 165.14-8.16Q166.80-9.32 167.68-11.28Q168.56-13.24 168.56-15.56L168.56-15.56Q168.56-18.04 167.10-19.52Q165.64-21 163.08-21L163.08-21Q160.84-21 159.18-19.84Q157.52-18.68 156.64-16.72Q155.76-14.76 155.76-12.44L155.76-12.44Q155.76-9.96 157.22-8.48Q158.68-7 161.24-7L161.24-7Z M196.64-28Q202.24-28 205.32-25.56Q208.40-23.12 208.40-18.72L208.40-18.72Q208.40-15.20 206.66-12.52Q204.92-9.84 201.70-8.36Q198.48-6.88 194.24-6.88L194.24-6.88L189.40-6.88L188.04 0L178.60 0L184.20-28L196.64-28ZM194.72-14.16Q196.68-14.16 197.76-15.14Q198.84-16.12 198.84-17.88L198.84-17.88Q198.84-20.72 195.32-20.72L195.32-20.72L192.16-20.72L190.84-14.16L194.72-14.16Z M225.96-28Q231.56-28 234.64-25.56Q237.72-23.12 237.72-18.72L237.72-18.72Q237.72-15.20 235.98-12.52Q234.24-9.84 231.02-8.36Q227.80-6.88 223.56-6.88L223.56-6.88L218.72-6.88L217.36 0L207.92 0L213.52-28L225.96-28ZM224.04-14.16Q226.00-14.16 227.08-15.14Q228.16-16.12 228.16-17.88L228.16-17.88Q228.16-20.72 224.64-20.72L224.64-20.72L221.48-20.72L220.16-14.16L224.04-14.16Z M237.24 0L242.84-28L252.28-28L246.68 0L237.24 0Z M275.24-28L284.44-28L278.84 0L271.08 0L263.04-13.04L260.44 0L251.24 0L256.84-28L264.60-28L272.64-14.96L275.24-28Z M303.40-7.40L304.88-14.76L313.08-14.76L310.68-2.68Q308.44-1.08 305.54-0.22Q302.64 0.64 299.32 0.64L299.32 0.64Q295.04 0.64 291.78-0.94Q288.52-2.52 286.74-5.36Q284.96-8.20 284.96-11.88L284.96-11.88Q284.96-16.76 287.24-20.56Q289.52-24.36 293.60-26.50Q297.68-28.64 302.96-28.64L302.96-28.64Q311.68-28.64 315.68-23.16L315.68-23.16L308.92-17.92Q307.60-19.60 306.08-20.30Q304.56-21 302.52-21L302.52-21Q300.08-21 298.26-19.92Q296.44-18.84 295.46-16.90Q294.48-14.96 294.48-12.48L294.48-12.48Q294.48-10 296.12-8.50Q297.76-7 300.64-7L300.64-7Q302.08-7 303.40-7.40L303.40-7.40Z M337.28 0.64Q333.64 0.64 330.44-0.14Q327.24-0.92 325.16-2.20L325.16-2.20L328.80-9.16Q333.32-6.56 338.24-6.56L338.24-6.56Q340.04-6.56 341-7Q341.96-7.44 341.96-8.20L341.96-8.20Q341.96-8.92 340.98-9.36Q340-9.80 337.88-10.32L337.88-10.32Q335.08-11.04 333.24-11.78Q331.40-12.52 330.02-14.06Q328.64-15.60 328.64-18.12L328.64-18.12Q328.64-21.28 330.34-23.66Q332.04-26.04 335.24-27.34Q338.44-28.64 342.80-28.64L342.80-28.64Q345.92-28.64 348.62-28.02Q351.32-27.40 353.28-26.24L353.28-26.24L349.88-19.36Q348.24-20.40 346.26-20.92Q344.28-21.44 342.20-21.44L342.20-21.44Q340.24-21.44 339.16-20.88Q338.08-20.32 338.08-19.56L338.08-19.56Q338.08-18.80 339.06-18.36Q340.04-17.92 342.28-17.40L342.28-17.40Q345-16.76 346.86-16.04Q348.72-15.32 350.08-13.80Q351.44-12.28 351.44-9.80L351.44-9.80Q351.44-6.68 349.72-4.32Q348-1.96 344.80-0.66Q341.60 0.64 337.28 0.64L337.28 0.64Z M352.44 0L358.04-28L367.48-28L361.88 0L352.44 0Z M372.52 0L376.64-20.68L368.44-20.68L369.92-28L395.76-28L394.28-20.68L386.08-20.68L381.96 0L372.52 0Z M419.52-20.88L406.04-20.88L405.40-17.60L417.24-17.60L415.88-10.80L404.00-10.80L403.28-7.12L417.32-7.12L415.88 0L392.60 0L398.20-28L420.96-28L419.52-20.88Z"/></g>
</svg>
</g></svg></svg>