<svg version="1.1" preserveAspectRatio="none" xmlns="http://www.w3.org/2000/svg" width="500" height="500" viewBox="0 0 500 500"><rect width="100%" height="100%" fill="#0F2D49" fill-opacity="1"/><svg viewBox="83.5979 108.2466 233.5732 156" width="333" height="222.4056527033067" x="83.5px" y="138.7972px" xmlns="http://www.w3.org/2000/svg" xmlns:xlink="http://www.w3.org/1999/xlink" preserveAspectRatio="none"><defs></defs><style>.companyName {fill:#CCBF90;fill-opacity:1;}.icon3-str {stroke:#EB63DD;stroke-opacity:1;}.shapeStroke-str {stroke:#CCBF90;stroke-opacity:1;}.text {fill:#E9E9E9;fill-opacity:1;}</style><g opacity="1" transform="rotate(0 104.5979 108.2466)">
<svg width="212.5732" height="120" x="104.5979" y="108.2466" version="1.1" preserveAspectRatio="none" viewBox="2.2 13.68 199.96 112.88">
  <g transform="matrix(1 0 0 1 0 0)" class="companyName"><path id="id-D6z1nYkh14" d="M16.44 27.12Q21.64 27.52 24.08 29.52Q26.52 31.52 26.52 34.24L26.52 34.24Q26.52 37.96 23.60 39.98Q20.68 42 15.48 42L15.48 42Q14.32 42 13.52 41.96L13.52 41.96Q10.88 41.88 8.36 41.88L8.36 41.88Q4.24 41.88 2.20 42L2.20 42L2.20 41.20Q3.52 41.12 4.14 40.88Q4.76 40.64 4.98 39.96Q5.20 39.28 5.20 37.76L5.20 37.76L5.20 17.92Q5.20 16.40 4.98 15.72Q4.76 15.04 4.14 14.80Q3.52 14.56 2.20 14.48L2.20 14.48L2.20 13.68Q4.24 13.80 8.28 13.80L8.28 13.80L12.72 13.76Q13.52 13.72 14.56 13.72L14.56 13.72Q19.36 13.72 21.90 15.44Q24.44 17.16 24.44 20L24.44 20Q24.44 22.32 22.42 24.32Q20.40 26.32 16.44 27.04L16.44 27.04L16.44 27.12ZM14.04 14.48Q12.96 14.48 12.46 14.76Q11.96 15.04 11.76 15.76Q11.56 16.48 11.56 17.92L11.56 17.92L11.56 26.96L13.28 26.96Q15.88 26.96 16.92 25.18Q17.96 23.40 17.96 20.44L17.96 20.44Q17.96 17.44 17.02 15.96Q16.08 14.48 14.04 14.48L14.04 14.48ZM14.32 41.08Q19.88 41.08 19.88 34.08L19.88 34.08Q19.88 30.92 18.28 29.28Q16.68 27.64 13.24 27.64L13.24 27.64L11.56 27.64L11.56 37.76Q11.56 39.20 11.76 39.88Q11.96 40.56 12.54 40.82Q13.12 41.08 14.32 41.08L14.32 41.08Z M50.88 13.80Q52.72 13.80 53.92 13.68L53.92 13.68L53.92 14.48Q52.92 14.84 51.96 16Q51 17.16 50.24 19.24L50.24 19.24L41.80 42.08Q41.36 42.04 40.40 42.04L40.40 42.04Q39.48 42.04 39.04 42.08L39.04 42.08L28.84 17.04Q28.32 15.72 27.64 15.12Q26.96 14.52 26.32 14.48L26.32 14.48L26.32 13.68Q28.72 13.80 32.40 13.80L32.40 13.80Q36.52 13.80 38.48 13.68L38.48 13.68L38.48 14.48Q36.96 14.56 36.32 14.84Q35.68 15.12 35.68 15.96L35.68 15.96Q35.68 16.64 36.16 17.84L36.16 17.84L43.20 35.76L48.12 22.48Q49.24 19.40 49.24 17.60L49.24 17.60Q49.24 16 48.38 15.28Q47.52 14.56 45.88 14.48L45.88 14.48L45.88 13.68Q48.60 13.80 50.88 13.80L50.88 13.80Z M11.36 55.16Q13.44 55.16 14.68 55.56Q15.92 55.96 17.20 56.72L17.20 56.72Q17.64 56.96 17.98 57.12Q18.32 57.28 18.56 57.28L18.56 57.28Q18.92 57.28 19.12 56.86Q19.32 56.44 19.44 55.52L19.44 55.52L20.36 55.52Q20.16 58.20 20.16 64.64L20.16 64.64L19.24 64.64Q19.08 62.48 18.26 60.52Q17.44 58.56 15.94 57.34Q14.44 56.12 12.44 56.12L12.44 56.12Q10.48 56.12 9.26 57.22Q8.04 58.32 8.04 60.20L8.04 60.20Q8.04 61.60 8.64 62.64Q9.24 63.68 10.32 64.54Q11.40 65.40 13.64 66.88L13.64 66.88L14.92 67.76Q17.28 69.32 18.64 70.48Q20 71.64 20.86 73.18Q21.72 74.72 21.72 76.76L21.72 76.76Q21.72 79.32 20.40 81.06Q19.08 82.80 16.82 83.68Q14.56 84.56 11.80 84.56L11.80 84.56Q9.56 84.56 8.08 84.16Q6.60 83.76 5.36 83.08L5.36 83.08Q4.48 82.52 4 82.52L4 82.52Q3.64 82.52 3.44 82.94Q3.24 83.36 3.12 84.28L3.12 84.28L2.20 84.28Q2.36 81.76 2.36 73.48L2.36 73.48L3.28 73.48Q3.56 77.96 5.28 80.74Q7 83.52 10.56 83.52L10.56 83.52Q12.72 83.52 14.12 82.36Q15.52 81.20 15.52 79.04L15.52 79.04Q15.52 76.80 14.08 75.20Q12.64 73.60 9.52 71.60L9.52 71.60Q7.12 70.04 5.68 68.88Q4.24 67.72 3.32 66.14Q2.40 64.56 2.40 62.48L2.40 62.48Q2.40 60.08 3.62 58.42Q4.84 56.76 6.88 55.96Q8.92 55.16 11.36 55.16L11.36 55.16Z M53.24 59.68L53.24 60.48Q51.88 60.56 51.28 60.80Q50.68 61.04 50.46 61.72Q50.24 62.40 50.24 63.92L50.24 63.92L50.24 79.76Q50.24 81.28 50.46 81.96Q50.68 82.64 51.30 82.88Q51.92 83.12 53.24 83.20L53.24 83.20L53.24 84Q51.40 83.88 47.40 83.88L47.40 83.88Q43.36 83.88 41.12 84L41.12 84L41.12 83.20Q42.48 83.12 43.08 82.88Q43.68 82.64 43.90 81.96Q44.12 81.28 44.12 79.76L44.12 79.76L44.12 72L33.84 72L33.84 79.76Q33.84 81.28 34.06 81.96Q34.28 82.64 34.90 82.88Q35.52 83.12 36.84 83.20L36.84 83.20L36.84 84Q34.64 83.88 30.56 83.88L30.56 83.88Q26.64 83.88 24.72 84L24.72 84L24.72 83.20Q26.08 83.12 26.68 82.88Q27.28 82.64 27.50 81.96Q27.72 81.28 27.72 79.76L27.72 79.76L27.72 63.92Q27.72 62.40 27.50 61.72Q27.28 61.04 26.66 60.80Q26.04 60.56 24.72 60.48L24.72 60.48L24.72 59.68Q26.64 59.80 30.56 59.80L30.56 59.80Q34.64 59.80 36.84 59.68L36.84 59.68L36.84 60.48Q35.48 60.56 34.88 60.80Q34.28 61.04 34.06 61.72Q33.84 62.40 33.84 63.92L33.84 63.92L33.84 71.20L44.12 71.20L44.12 63.92Q44.12 62.40 43.90 61.72Q43.68 61.04 43.06 60.80Q42.44 60.56 41.12 60.48L41.12 60.48L41.12 59.68Q43.36 59.80 47.40 59.80L47.40 59.80Q51.40 59.80 53.24 59.68L53.24 59.68Z M69.44 59.12Q73.48 59.12 76.52 60.58Q79.56 62.04 81.24 64.86Q82.92 67.68 82.92 71.60L82.92 71.60Q82.92 75.44 81.20 78.38Q79.48 81.32 76.40 82.94Q73.32 84.56 69.40 84.56L69.40 84.56Q65.36 84.56 62.32 83.10Q59.28 81.64 57.60 78.82Q55.92 76 55.92 72.08L55.92 72.08Q55.92 68.24 57.64 65.30Q59.36 62.36 62.44 60.74Q65.52 59.12 69.44 59.12L69.44 59.12ZM69.28 59.84Q67.20 59.84 65.62 61.38Q64.04 62.92 63.18 65.66Q62.32 68.40 62.32 71.92L62.32 71.92Q62.32 75.48 63.28 78.20Q64.24 80.92 65.90 82.38Q67.56 83.84 69.56 83.84L69.56 83.84Q71.64 83.84 73.22 82.30Q74.80 80.76 75.66 78.02Q76.52 75.28 76.52 71.76L76.52 71.76Q76.52 68.20 75.56 65.48Q74.60 62.76 72.94 61.30Q71.28 59.84 69.28 59.84L69.28 59.84Z M96.44 74.16L94.72 74.16L94.72 79.76Q94.72 81.28 94.96 81.96Q95.20 82.64 95.86 82.88Q96.52 83.12 97.96 83.20L97.96 83.20L97.96 84Q95.64 83.88 91.20 83.88L91.20 83.88Q87.48 83.88 85.60 84L85.60 84L85.60 83.20Q86.96 83.12 87.56 82.88Q88.16 82.64 88.38 81.96Q88.60 81.28 88.60 79.76L88.60 79.76L88.60 63.92Q88.60 62.40 88.38 61.72Q88.16 61.04 87.54 60.80Q86.92 60.56 85.60 60.48L85.60 60.48L85.60 59.68Q87.48 59.80 90.96 59.80L90.96 59.80L95.80 59.76Q96.64 59.72 97.72 59.72L97.72 59.72Q102.92 59.72 105.46 61.46Q108 63.20 108 66.40L108 66.40Q108 69.64 105.34 71.90Q102.68 74.16 96.44 74.16L96.44 74.16ZM97.20 60.48Q96.16 60.48 95.64 60.76Q95.12 61.04 94.92 61.76Q94.72 62.48 94.72 63.92L94.72 63.92L94.72 73.36L96.04 73.36Q99.20 73.36 100.40 71.60Q101.60 69.84 101.60 66.84L101.60 66.84Q101.60 63.60 100.58 62.04Q99.56 60.48 97.20 60.48L97.20 60.48Z M120.84 74.16L119.12 74.16L119.12 79.76Q119.12 81.28 119.36 81.96Q119.60 82.64 120.26 82.88Q120.92 83.12 122.36 83.20L122.36 83.20L122.36 84Q120.04 83.88 115.60 83.88L115.60 83.88Q111.88 83.88 110 84L110 84L110 83.20Q111.36 83.12 111.96 82.88Q112.56 82.64 112.78 81.96Q113 81.28 113 79.76L113 79.76L113 63.92Q113 62.40 112.78 61.72Q112.56 61.04 111.94 60.80Q111.32 60.56 110 60.48L110 60.48L110 59.68Q111.88 59.80 115.36 59.80L115.36 59.80L120.20 59.76Q121.04 59.72 122.12 59.72L122.12 59.72Q127.32 59.72 129.86 61.46Q132.40 63.20 132.40 66.40L132.40 66.40Q132.40 69.64 129.74 71.90Q127.08 74.16 120.84 74.16L120.84 74.16ZM121.60 60.48Q120.56 60.48 120.04 60.76Q119.52 61.04 119.32 61.76Q119.12 62.48 119.12 63.92L119.12 63.92L119.12 73.36L120.44 73.36Q123.60 73.36 124.80 71.60Q126 69.84 126 66.84L126 66.84Q126 63.60 124.98 62.04Q123.96 60.48 121.60 60.48L121.60 60.48Z M146.52 59.68L146.52 60.48Q145.16 60.56 144.56 60.80Q143.96 61.04 143.74 61.72Q143.52 62.40 143.52 63.92L143.52 63.92L143.52 79.76Q143.52 81.28 143.74 81.96Q143.96 82.64 144.56 82.88Q145.16 83.12 146.52 83.20L146.52 83.20L146.52 84Q144.48 83.88 140.60 83.88L140.60 83.88Q136.40 83.88 134.40 84L134.40 84L134.40 83.20Q135.76 83.12 136.36 82.88Q136.96 82.64 137.18 81.96Q137.40 81.28 137.40 79.76L137.40 79.76L137.40 63.92Q137.40 62.40 137.18 61.72Q136.96 61.04 136.34 60.80Q135.72 60.56 134.40 60.48L134.40 60.48L134.40 59.68Q136.36 59.80 140.60 59.80L140.60 59.80Q144.48 59.80 146.52 59.68L146.52 59.68Z M174.32 59.68L174.32 60.48Q173 60.68 172.38 61.08Q171.76 61.48 171.54 62.36Q171.32 63.24 171.32 65.04L171.32 65.04L171.32 84.08L170.24 84.04L169.20 84.08L153.20 64.20L153.20 78.64Q153.20 80.40 153.52 81.30Q153.84 82.20 154.68 82.60Q155.52 83 157.32 83.20L157.32 83.20L157.32 84Q155.52 83.88 152.76 83.88L152.76 83.88Q150.56 83.88 149.28 84L149.28 84L149.28 83.20Q150.60 83 151.22 82.60Q151.84 82.20 152.06 81.32Q152.28 80.44 152.28 78.64L152.28 78.64L152.28 63.92Q152.28 62.40 152.06 61.72Q151.84 61.04 151.22 60.80Q150.60 60.56 149.28 60.48L149.28 60.48L149.28 59.68Q150.56 59.80 152.76 59.80L152.76 59.80Q155.60 59.80 157.64 59.68L157.64 59.68L170.40 75.52L170.40 65.04Q170.40 63.28 170.08 62.38Q169.76 61.48 168.90 61.08Q168.04 60.68 166.28 60.48L166.28 60.48L166.28 59.68Q168.04 59.80 170.84 59.80L170.84 59.80Q173.08 59.80 174.32 59.68L174.32 59.68Z M190.60 59.12Q193 59.12 194.44 59.76Q195.88 60.40 197.64 61.72L197.64 61.72Q198.16 62.12 198.44 62.12L198.44 62.12Q199.20 62.12 199.44 59.68L199.44 59.68L200.36 59.68Q200.20 61.96 200.20 67.68L200.20 67.68L199.28 67.68Q198.64 64.56 197.28 62.96L197.28 62.96Q196.04 61.60 194.78 60.88Q193.52 60.16 191.72 60.16L191.72 60.16Q189.12 60.16 187.18 61.60Q185.24 63.04 184.20 65.70Q183.16 68.36 183.16 71.88L183.16 71.88Q183.16 78 185.16 80.88Q187.16 83.76 191.12 83.76L191.12 83.76Q192.48 83.76 193.40 83.20L193.40 83.20Q194.24 82.68 194.24 81.48L194.24 81.48L194.24 77.76Q194.24 76.08 193.94 75.32Q193.64 74.56 192.88 74.28Q192.12 74 190.44 73.92L190.44 73.92L190.44 73.12Q193.04 73.24 197.04 73.24L197.04 73.24Q200.44 73.24 202.16 73.12L202.16 73.12L202.16 73.92Q201.32 74 200.96 74.24Q200.60 74.48 200.48 75.14Q200.36 75.80 200.36 77.36L200.36 77.36L200.36 84L199.56 84Q199.40 82.52 198.72 82.52L198.72 82.52Q198.08 82.52 196.72 83.24L196.72 83.24Q193.72 84.56 190.56 84.56L190.56 84.56Q184.04 84.56 180.40 81.34Q176.76 78.12 176.76 72.32L176.76 72.32Q176.76 68.32 178.52 65.34Q180.28 62.36 183.42 60.74Q186.56 59.12 190.60 59.12L190.60 59.12Z M11.60 101.12Q13.44 101.12 14.74 101.52Q16.04 101.92 17.20 102.60L17.20 102.60Q17.64 102.84 17.98 103.00Q18.32 103.16 18.56 103.16L18.56 103.16Q18.92 103.16 19.12 102.74Q19.32 102.32 19.44 101.40L19.44 101.40L20.36 101.40Q20.16 103.80 20.16 109.72L20.16 109.72L19.24 109.72Q18.80 106.12 16.92 104.06Q15.04 102.00 12 102.00L12 102.00Q10 102.00 8.78 102.88Q7.56 103.76 7.56 105.16L7.56 105.16Q7.56 106.24 8.22 107.14Q8.88 108.04 9.96 108.80Q11.04 109.56 13.12 110.80L13.12 110.80L14 111.32Q16.40 112.68 17.92 113.78Q19.44 114.88 20.44 116.38Q21.44 117.88 21.44 119.76L21.44 119.76Q21.44 123.04 18.72 124.80Q16 126.56 11.56 126.56L11.56 126.56Q9.64 126.56 8.24 126.14Q6.84 125.72 5.40 125.00L5.40 125.00Q4.40 124.52 4.00 124.52L4.00 124.52Q3.64 124.52 3.44 124.94Q3.24 125.36 3.12 126.28L3.12 126.28L2.20 126.28Q2.36 124.04 2.36 116.52L2.36 116.52L3.28 116.52Q3.56 120.76 5.58 123.20Q7.60 125.64 11.28 125.64L11.28 125.64Q13.08 125.64 14.40 124.72Q15.72 123.80 15.72 122.00L15.72 122.00Q15.72 120.40 14.48 119.24Q13.24 118.08 10.24 116.32L10.24 116.32Q6.44 114.16 4.42 112.20Q2.40 110.24 2.40 107.60L2.40 107.60Q2.40 104.48 4.98 102.80Q7.56 101.12 11.60 101.12L11.60 101.12Z M36.64 101.68L36.64 102.48Q35.28 102.56 34.68 102.80Q34.08 103.04 33.86 103.72Q33.64 104.40 33.64 105.92L33.64 105.92L33.64 121.76Q33.64 123.28 33.86 123.96Q34.08 124.64 34.68 124.88Q35.28 125.12 36.64 125.20L36.64 125.20L36.64 126.00Q34.60 125.88 30.72 125.88L30.72 125.88Q26.52 125.88 24.52 126.00L24.52 126.00L24.52 125.20Q25.88 125.12 26.48 124.88Q27.08 124.64 27.30 123.96Q27.52 123.28 27.52 121.76L27.52 121.76L27.52 105.92Q27.52 104.40 27.30 103.72Q27.08 103.04 26.46 102.80Q25.84 102.56 24.52 102.48L24.52 102.48L24.52 101.68Q26.48 101.80 30.72 101.80L30.72 101.80Q34.60 101.80 36.64 101.68L36.64 101.68Z M62.84 101.68Q62.56 104.72 62.56 107.12L62.56 107.12Q62.56 109.36 62.68 110.64L62.68 110.64L61.76 110.64Q61.20 107.60 60.42 105.88Q59.64 104.16 58.42 103.38Q57.20 102.60 55.28 102.60L55.28 102.60L54.04 102.60L54.04 121.36Q54.04 123.04 54.36 123.80Q54.68 124.56 55.48 124.84Q56.28 125.12 58.08 125.20L58.08 125.20L58.08 126.00Q55.92 125.88 50.88 125.88L50.88 125.88Q45.80 125.88 43.88 126.00L43.88 126.00L43.88 125.20Q45.68 125.12 46.48 124.84Q47.28 124.56 47.60 123.80Q47.92 123.04 47.92 121.36L47.92 121.36L47.92 102.60L46.68 102.60Q44.76 102.60 43.54 103.38Q42.32 104.16 41.54 105.88Q40.76 107.60 40.20 110.64L40.20 110.64L39.28 110.64Q39.40 109.36 39.40 107.12L39.40 107.12Q39.40 104.72 39.12 101.68L39.12 101.68Q42.60 101.80 50.88 101.80L50.88 101.80Q59.32 101.80 62.84 101.68L62.84 101.68Z M86.20 120.80Q86.20 123.08 86.48 126.00L86.48 126.00Q83.88 125.88 77.72 125.88L77.72 125.88Q69.48 125.88 65.32 126.00L65.32 126.00L65.32 125.20Q66.68 125.12 67.28 124.88Q67.88 124.64 68.10 123.96Q68.32 123.28 68.32 121.76L68.32 121.76L68.32 105.92Q68.32 104.40 68.10 103.72Q67.88 103.04 67.26 102.80Q66.64 102.56 65.32 102.48L65.32 102.48L65.32 101.68Q69.48 101.80 77.72 101.80L77.72 101.80Q83.32 101.80 85.68 101.68L85.68 101.68Q85.40 104.36 85.40 106.48L85.40 106.48Q85.40 108.04 85.52 108.96L85.52 108.96L84.60 108.96Q84 105.52 82.52 104.06Q81.04 102.60 78.44 102.60L78.44 102.60L76.96 102.60Q75.92 102.60 75.40 102.78Q74.88 102.96 74.66 103.50Q74.44 104.04 74.44 105.20L74.44 105.20L74.44 113.36L76.32 113.36Q78.16 113.36 79.10 112.06Q80.04 110.76 80.36 109.04L80.36 109.04L81.28 109.04Q81.16 110.40 81.16 112.16L81.16 112.16L81.16 113.76Q81.16 115.56 81.40 118.48L81.40 118.48L80.48 118.48Q80.20 116.60 79.22 115.38Q78.24 114.16 76.32 114.16L76.32 114.16L74.44 114.16L74.44 122.48Q74.44 123.64 74.66 124.18Q74.88 124.72 75.40 124.90Q75.92 125.08 76.96 125.08L76.96 125.08L78.68 125.08Q81.52 125.08 83.14 123.44Q84.76 121.80 85.40 117.92L85.40 117.92L86.32 117.92Q86.20 119.04 86.20 120.80L86.20 120.80Z"/></g>
</svg>
</g><g opacity="1" transform="rotate(0 83.5979 108.2466)">
<svg width="3" height="120" x="83.5979" y="108.2466" version="1.1" preserveAspectRatio="none" viewBox="0 0 3 120">
  <defs><rect x="0" y="0" width="3" height="120" rx="0px" ry="0px" id="id-tBXipXk0b1675613232822"></rect></defs><use class="companyName shapeStroke-str" style="stroke-width:0;" xlink:href="#id-tBXipXk0b1675613232822"></use>
</svg>
</g><g opacity="1" transform="rotate(0 83.5979 248.2466)">
<svg width="192.6678" height="16" x="83.5979" y="248.2466" version="1.1" preserveAspectRatio="none" viewBox="4.2 -30.28 460.96000000000004 38.28">
  <g transform="matrix(1 0 0 1 0 0)" class="text"><path id="id-D-YM9nyY421" d="M23.04-14.52Q25.48-13.84 26.88-12.06Q28.28-10.28 28.28-7.56L28.28-7.56Q28.28-3.92 25.54-1.96Q22.80 0 17.56 0L17.56 0L4.20 0L4.20-28L16.76-28Q21.56-28 24.18-26.08Q26.80-24.16 26.80-20.76L26.80-20.76Q26.80-18.56 25.78-16.96Q24.76-15.36 23.04-14.52L23.04-14.52ZM16.40-24.76L8.20-24.76L8.20-15.80L16.40-15.80Q19.48-15.80 21.14-16.94Q22.80-18.08 22.80-20.28L22.80-20.28Q22.80-22.48 21.14-23.62Q19.48-24.76 16.40-24.76L16.40-24.76ZM17.40-3.24Q20.80-3.24 22.52-4.36Q24.24-5.48 24.24-7.88L24.24-7.88Q24.24-12.56 17.40-12.56L17.40-12.56L8.20-12.56L8.20-3.24L17.40-3.24Z M42.44-21.40Q46.84-21.40 49.18-19.24Q51.52-17.08 51.52-12.80L51.52-12.80L51.52 0L47.88 0L47.88-2.80Q46.92-1.32 45.14-0.54Q43.36 0.24 40.92 0.24L40.92 0.24Q37.36 0.24 35.22-1.48Q33.08-3.20 33.08-6L33.08-6Q33.08-8.80 35.12-10.50Q37.16-12.20 41.60-12.20L41.60-12.20L47.68-12.20L47.68-12.96Q47.68-15.44 46.24-16.76Q44.80-18.08 42-18.08L42-18.08Q40.12-18.08 38.32-17.46Q36.52-16.84 35.28-15.80L35.28-15.80L33.68-18.68Q35.32-20 37.60-20.70Q39.88-21.40 42.44-21.40L42.44-21.40ZM41.56-2.72Q43.76-2.72 45.36-3.70Q46.96-4.68 47.68-6.48L47.68-6.48L47.68-9.44L41.76-9.44Q36.88-9.44 36.88-6.16L36.88-6.16Q36.88-4.56 38.12-3.64Q39.36-2.72 41.56-2.72L41.56-2.72Z M70.76-21.40Q74.80-21.40 77.18-19.06Q79.56-16.72 79.56-12.20L79.56-12.20L79.56 0L75.72 0L75.72-11.76Q75.72-14.84 74.24-16.40Q72.76-17.96 70-17.96L70-17.96Q66.88-17.96 65.08-16.14Q63.28-14.32 63.28-10.92L63.28-10.92L63.28 0L59.44 0L59.44-21.20L63.12-21.20L63.12-18Q64.28-19.64 66.26-20.52Q68.24-21.40 70.76-21.40L70.76-21.40Z M95.20-21.40Q99.60-21.40 101.94-19.24Q104.28-17.08 104.28-12.80L104.28-12.80L104.28 0L100.64 0L100.64-2.80Q99.68-1.32 97.90-0.54Q96.12 0.24 93.68 0.24L93.68 0.24Q90.12 0.24 87.98-1.48Q85.84-3.20 85.84-6L85.84-6Q85.84-8.80 87.88-10.50Q89.92-12.20 94.36-12.20L94.36-12.20L100.44-12.20L100.44-12.96Q100.44-15.44 99.00-16.76Q97.56-18.08 94.76-18.08L94.76-18.08Q92.88-18.08 91.08-17.46Q89.28-16.84 88.04-15.80L88.04-15.80L86.44-18.68Q88.08-20 90.36-20.70Q92.64-21.40 95.20-21.40L95.20-21.40ZM94.32-2.72Q96.52-2.72 98.12-3.70Q99.72-4.68 100.44-6.48L100.44-6.48L100.44-9.44L94.52-9.44Q89.64-9.44 89.64-6.16L89.64-6.16Q89.64-4.56 90.88-3.64Q92.12-2.72 94.32-2.72L94.32-2.72Z M118.28 0.24Q115.68 0.24 113.28-0.46Q110.88-1.16 109.52-2.24L109.52-2.24L111.12-5.28Q112.52-4.28 114.52-3.68Q116.52-3.08 118.56-3.08L118.56-3.08Q123.60-3.08 123.60-5.96L123.60-5.96Q123.60-6.92 122.92-7.48Q122.24-8.04 121.22-8.30Q120.20-8.56 118.32-8.88L118.32-8.88Q115.76-9.28 114.14-9.80Q112.52-10.32 111.36-11.56Q110.20-12.80 110.20-15.04L110.20-15.04Q110.20-17.92 112.60-19.66Q115.00-21.40 119.04-21.40L119.04-21.40Q121.16-21.40 123.28-20.88Q125.40-20.36 126.76-19.48L126.76-19.48L125.12-16.44Q122.52-18.12 119.00-18.12L119.00-18.12Q116.56-18.12 115.28-17.32Q114.00-16.52 114.00-15.20L114.00-15.20Q114.00-14.16 114.72-13.56Q115.44-12.96 116.50-12.68Q117.56-12.40 119.48-12.04L119.48-12.04Q122.04-11.60 123.62-11.10Q125.20-10.60 126.32-9.40Q127.44-8.20 127.44-6.04L127.44-6.04Q127.44-3.16 124.98-1.46Q122.52 0.24 118.28 0.24L118.28 0.24Z M143.76-4L144.96-1.24Q144.12-0.52 142.88-0.14Q141.64 0.24 140.32 0.24L140.32 0.24Q137.12 0.24 135.36-1.48Q133.60-3.20 133.60-6.40L133.60-6.40L133.60-18.04L130-18.04L130-21.20L133.60-21.20L133.60-25.84L137.44-25.84L137.44-21.20L143.52-21.20L143.52-18.04L137.44-18.04L137.44-6.56Q137.44-4.84 138.30-3.92Q139.16-3 140.76-3L140.76-3Q142.52-3 143.76-4L143.76-4Z M161.72-21.40Q165.76-21.40 168.14-19.06Q170.52-16.72 170.52-12.20L170.52-12.20L170.52 0L166.68 0L166.68-11.76Q166.68-14.84 165.20-16.40Q163.72-17.96 160.96-17.96L160.96-17.96Q157.84-17.96 156.04-16.14Q154.24-14.32 154.24-10.92L154.24-10.92L154.24 0L150.40 0L150.40-29.68L154.24-29.68L154.24-18.20Q155.44-19.72 157.38-20.56Q159.32-21.40 161.72-21.40L161.72-21.40Z M186.16-21.40Q190.56-21.40 192.90-19.24Q195.24-17.08 195.24-12.80L195.24-12.80L195.24 0L191.60 0L191.60-2.80Q190.64-1.32 188.86-0.54Q187.08 0.24 184.64 0.24L184.64 0.24Q181.08 0.24 178.94-1.48Q176.80-3.20 176.80-6L176.80-6Q176.80-8.80 178.84-10.50Q180.88-12.20 185.32-12.20L185.32-12.20L191.40-12.20L191.40-12.96Q191.40-15.44 189.96-16.76Q188.52-18.08 185.72-18.08L185.72-18.08Q183.84-18.08 182.04-17.46Q180.24-16.84 179.00-15.80L179.00-15.80L177.40-18.68Q179.04-20 181.32-20.70Q183.60-21.40 186.16-21.40L186.16-21.40ZM185.28-2.72Q187.48-2.72 189.08-3.70Q190.68-4.68 191.40-6.48L191.40-6.48L191.40-9.44L185.48-9.44Q180.60-9.44 180.60-6.16L180.60-6.16Q180.60-4.56 181.84-3.64Q183.08-2.72 185.28-2.72L185.28-2.72Z M203.16 0L203.16-29.68L207.00-29.68L207.00 0L203.16 0Z M215.12 0L215.12-21.20L218.96-21.20L218.96 0L215.12 0ZM217.04-25.28Q215.92-25.28 215.18-26Q214.44-26.72 214.44-27.76L214.44-27.76Q214.44-28.80 215.18-29.54Q215.92-30.28 217.04-30.28L217.04-30.28Q218.16-30.28 218.90-29.58Q219.64-28.88 219.64-27.84L219.64-27.84Q219.64-26.76 218.90-26.02Q218.16-25.28 217.04-25.28L217.04-25.28Z M253.64-21.20L257.40-21.20L248.12 0L244.20 0L234.92-21.20L238.92-21.20L246.20-4.20L253.64-21.20Z M261.80 0L261.80-21.20L265.64-21.20L265.64 0L261.80 0ZM263.72-25.28Q262.60-25.28 261.86-26Q261.12-26.72 261.12-27.76L261.12-27.76Q261.12-28.80 261.86-29.54Q262.60-30.28 263.72-30.28L263.72-30.28Q264.84-30.28 265.58-29.58Q266.32-28.88 266.32-27.84L266.32-27.84Q266.32-26.76 265.58-26.02Q264.84-25.28 263.72-25.28L263.72-25.28Z M289.92-29.68L293.76-29.68L293.76 0L290.08 0L290.08-3.36Q288.80-1.60 286.84-0.68Q284.88 0.24 282.52 0.24L282.52 0.24Q279.44 0.24 277.00-1.12Q274.56-2.48 273.18-4.94Q271.80-7.40 271.80-10.60L271.80-10.60Q271.80-13.80 273.18-16.24Q274.56-18.68 277.00-20.04Q279.44-21.40 282.52-21.40L282.52-21.40Q284.80-21.40 286.72-20.54Q288.64-19.68 289.92-18L289.92-18L289.92-29.68ZM282.84-3.12Q284.84-3.12 286.48-4.06Q288.12-5 289.04-6.70Q289.96-8.40 289.96-10.60L289.96-10.60Q289.96-12.80 289.04-14.50Q288.12-16.20 286.48-17.12Q284.84-18.04 282.84-18.04L282.84-18.04Q280.80-18.04 279.18-17.12Q277.56-16.20 276.62-14.50Q275.68-12.80 275.68-10.60L275.68-10.60Q275.68-8.40 276.62-6.70Q277.56-5 279.18-4.06Q280.80-3.12 282.84-3.12L282.84-3.12Z M316.84-21.20L320.60-21.20L310.32 2.12Q308.96 5.36 307.14 6.68Q305.32 8 302.76 8L302.76 8Q301.20 8 299.74 7.50Q298.28 7 297.32 6.04L297.32 6.04L298.96 3.16Q300.60 4.72 302.76 4.72L302.76 4.72Q304.16 4.72 305.10 3.98Q306.04 3.24 306.80 1.44L306.80 1.44L307.48-0.04L298.12-21.20L302.12-21.20L309.52-4.24L316.84-21.20Z M332.04-21.40Q336.44-21.40 338.78-19.24Q341.12-17.08 341.12-12.80L341.12-12.80L341.12 0L337.48 0L337.48-2.80Q336.52-1.32 334.74-0.54Q332.96 0.24 330.52 0.24L330.52 0.24Q326.96 0.24 324.82-1.48Q322.68-3.20 322.68-6L322.68-6Q322.68-8.80 324.72-10.50Q326.76-12.20 331.20-12.20L331.20-12.20L337.28-12.20L337.28-12.96Q337.28-15.44 335.84-16.76Q334.40-18.08 331.60-18.08L331.60-18.08Q329.72-18.08 327.92-17.46Q326.12-16.84 324.88-15.80L324.88-15.80L323.28-18.68Q324.92-20 327.20-20.70Q329.48-21.40 332.04-21.40L332.04-21.40ZM331.16-2.72Q333.36-2.72 334.96-3.70Q336.56-4.68 337.28-6.48L337.28-6.48L337.28-9.44L331.36-9.44Q326.48-9.44 326.48-6.16L326.48-6.16Q326.48-4.56 327.72-3.64Q328.96-2.72 331.16-2.72L331.16-2.72Z M360.28-21.40Q363.36-21.40 365.80-20.04Q368.24-18.68 369.62-16.24Q371.00-13.80 371.00-10.60L371.00-10.60Q371.00-7.40 369.62-4.94Q368.24-2.48 365.80-1.12Q363.36 0.24 360.28 0.24L360.28 0.24Q358.00 0.24 356.10-0.64Q354.20-1.52 352.88-3.20L352.88-3.20L352.88 7.76L349.04 7.76L349.04-21.20L352.72-21.20L352.72-17.84Q354.00-19.60 355.96-20.50Q357.92-21.40 360.28-21.40L360.28-21.40ZM359.96-3.12Q362.00-3.12 363.62-4.06Q365.24-5 366.18-6.70Q367.12-8.40 367.12-10.60L367.12-10.60Q367.12-12.80 366.18-14.50Q365.24-16.20 363.62-17.12Q362.00-18.04 359.96-18.04L359.96-18.04Q357.96-18.04 356.34-17.10Q354.72-16.16 353.78-14.48Q352.84-12.80 352.84-10.60L352.84-10.60Q352.84-8.40 353.76-6.70Q354.68-5 356.32-4.06Q357.96-3.12 359.96-3.12L359.96-3.12Z M396.28-10.48Q396.28-10.04 396.20-9.32L396.20-9.32L379.00-9.32Q379.36-6.52 381.46-4.82Q383.56-3.12 386.68-3.12L386.68-3.12Q390.48-3.12 392.80-5.68L392.80-5.68L394.92-3.20Q393.48-1.52 391.34-0.64Q389.20 0.24 386.56 0.24L386.56 0.24Q383.20 0.24 380.60-1.14Q378.00-2.52 376.58-5Q375.16-7.48 375.16-10.60L375.16-10.60Q375.16-13.68 376.54-16.16Q377.92-18.64 380.34-20.02Q382.76-21.40 385.80-21.40L385.80-21.40Q388.84-21.40 391.22-20.02Q393.60-18.64 394.94-16.16Q396.28-13.68 396.28-10.48L396.28-10.48ZM385.80-18.16Q383.04-18.16 381.18-16.48Q379.32-14.80 379.00-12.08L379.00-12.08L392.60-12.08Q392.28-14.76 390.42-16.46Q388.56-18.16 385.80-18.16L385.80-18.16Z M421.56-10.48Q421.56-10.04 421.48-9.32L421.48-9.32L404.28-9.32Q404.64-6.52 406.74-4.82Q408.84-3.12 411.96-3.12L411.96-3.12Q415.76-3.12 418.08-5.68L418.08-5.68L420.20-3.20Q418.76-1.52 416.62-0.64Q414.48 0.24 411.84 0.24L411.84 0.24Q408.48 0.24 405.88-1.14Q403.28-2.52 401.86-5Q400.44-7.48 400.44-10.60L400.44-10.60Q400.44-13.68 401.82-16.16Q403.20-18.64 405.62-20.02Q408.04-21.40 411.08-21.40L411.08-21.40Q414.12-21.40 416.50-20.02Q418.88-18.64 420.22-16.16Q421.56-13.68 421.56-10.48L421.56-10.48ZM411.08-18.16Q408.32-18.16 406.46-16.48Q404.60-14.80 404.28-12.08L404.28-12.08L417.88-12.08Q417.56-14.76 415.70-16.46Q413.84-18.16 411.08-18.16L411.08-18.16Z M438.40-4L439.60-1.24Q438.76-0.52 437.52-0.14Q436.28 0.24 434.96 0.24L434.96 0.24Q431.76 0.24 430.00-1.48Q428.24-3.20 428.24-6.40L428.24-6.40L428.24-18.04L424.64-18.04L424.64-21.20L428.24-21.20L428.24-25.84L432.08-25.84L432.08-21.20L438.16-21.20L438.16-18.04L432.08-18.04L432.08-6.56Q432.08-4.84 432.94-3.92Q433.80-3 435.40-3L435.40-3Q437.16-3 438.40-4L438.40-4Z M456.36-21.40Q460.40-21.40 462.78-19.06Q465.16-16.72 465.16-12.20L465.16-12.20L465.16 0L461.32 0L461.32-11.76Q461.32-14.84 459.84-16.40Q458.36-17.96 455.60-17.96L455.60-17.96Q452.48-17.96 450.68-16.14Q448.88-14.32 448.88-10.92L448.88-10.92L448.88 0L445.04 0L445.04-29.68L448.88-29.68L448.88-18.20Q450.08-19.72 452.02-20.56Q453.96-21.40 456.36-21.40L456.36-21.40Z"/></g>
</svg>
</g></svg></svg>